<svg width="251" height="54" viewBox="0 0 251 54" fill="none" xmlns="http://www.w3.org/2000/svg">
<path fill-rule="evenodd" clip-rule="evenodd" d="M42.6022 53.5714H5.44619C4.77528 53.5714 4.11424 53.4466 3.4902 53.2064C2.91302 52.9663 2.36051 52.6325 1.90913 52.1883C1.45035 51.7368 1.08776 51.2085 0.816441 50.6298C0.559918 50.0463 0.439056 49.4147 0.439056 48.7688C0.439056 46.0288 2.66024 43.8076 5.40022 43.8076H23.7922L1.72766 38.3671C1.06429 38.2036 0.670741 37.5204 0.862051 36.8645C1.04406 36.2405 1.68941 35.8744 2.31839 36.0385L28.0103 42.739L5.2289 29.9343C4.53377 29.5436 4.29663 28.6572 4.7038 27.9716C5.09745 27.3088 5.94809 27.0812 6.62016 27.4589L29.4607 40.2944L10.8768 22.2043C10.3002 21.643 10.3001 20.7166 10.8767 20.1552C11.4318 19.6148 12.3163 19.6148 12.8714 20.1552L37.1687 43.8076H42.6022C45.2266 43.8076 47.7031 43.1592 49.6911 41.4351C52.0122 39.4227 52.8212 36.6132 52.8212 33.6595V19.8687C52.8212 16.9174 52.022 14.0814 49.6887 12.0763C47.7179 10.3834 45.1798 9.80466 42.6022 9.80466H24.7922C24.2399 9.80466 23.7922 10.2524 23.7922 10.8047V15.4648C23.7922 18.1519 21.5353 20.3467 18.7777 20.3467C16.0176 20.3467 13.7631 18.1495 13.7631 15.4648V4.80267C13.7631 4.15912 13.8815 3.52516 14.1454 2.93443C14.4044 2.35571 14.7695 1.83462 15.2307 1.38557C15.687 0.941324 16.2346 0.605137 16.8291 0.360201C17.4383 0.12487 18.1018 0 18.7703 0H42.6022C45.313 0 47.9695 0.441846 50.5051 1.38797C52.9248 2.29328 55.0855 3.62602 56.9527 5.37659C58.8865 7.1872 60.3344 9.3364 61.358 11.7497C62.463 14.3624 62.9391 17.1359 62.9391 19.9551V33.5731C62.9391 36.3971 62.463 39.1586 61.358 41.7785C60.3393 44.187 58.8865 46.3338 56.9527 48.1372C55.0781 49.8854 52.9174 51.2325 50.5002 52.157C47.9719 53.1224 45.3204 53.5714 42.6022 53.5714Z" fill="white"/>
<path d="M72.8708 32.9752H88.9785C89.6362 32.9752 90.2892 32.8479 90.9085 32.5814C91.5038 32.3413 92.0511 32.0003 92.5072 31.5464C92.9562 31.095 93.2994 30.5595 93.5491 29.9759C93.8059 29.3708 93.9356 28.7465 93.9356 28.0861C93.9356 27.4281 93.8011 26.7894 93.5467 26.1794C93.2922 25.5743 92.9465 25.0196 92.5096 24.5561C92.0463 24.0927 91.4894 23.7445 90.8917 23.4851C90.2892 23.2234 89.6362 23.0841 88.9785 23.0841H72.8708C71.4905 23.0841 70.3167 23.5284 69.3444 24.5105C68.8811 24.9788 68.5379 25.5431 68.2858 26.1698C68.0266 26.7774 67.8993 27.4281 67.8993 28.0861C67.8993 28.7441 68.0218 29.3684 68.2906 29.9807C68.5355 30.5715 68.8883 31.095 69.3396 31.544C70.3239 32.5214 71.4857 32.9752 72.8708 32.9752Z" fill="#FAFAFA"/>
<path d="M112.842 53.569C113.507 53.569 114.155 53.449 114.775 53.204C115.341 52.9783 115.869 52.6661 116.299 52.2291C116.734 51.7872 117.065 51.2733 117.293 50.697C117.535 50.0919 117.643 49.4579 117.643 48.8072C117.643 48.1588 117.538 47.5369 117.291 46.9245C117.07 46.3482 116.736 45.8415 116.29 45.3901C115.869 44.9458 115.358 44.6096 114.777 44.3791C114.158 44.1222 113.512 44.0045 112.842 44.0045C110.828 44.0045 109.134 43.2481 108.975 40.998V4.88912C108.975 4.24076 108.841 3.61882 108.581 3.04009C108.296 2.43976 107.924 1.90666 107.468 1.4384C106.99 0.984548 106.431 0.641157 105.804 0.389017C105.199 0.127271 104.546 0 103.888 0C102.585 0 101.507 0.470662 100.602 1.4288C99.649 2.39413 99.2145 3.53477 99.2145 4.88912V40.7579C99.2145 42.5397 99.5434 44.2687 100.276 45.8944C100.984 47.4648 101.966 48.8336 103.243 49.9934C104.52 51.1557 106.001 52.025 107.614 52.6325C109.29 53.2641 111.052 53.569 112.842 53.569Z" fill="#FAFAFA"/>
<path d="M128.307 10.518C129.015 10.518 129.699 10.3931 130.352 10.1145C130.99 9.84318 131.557 9.45657 132.047 8.96429C133.067 7.93412 133.605 6.73105 133.605 5.27344C133.605 3.79902 133.091 2.57193 132.049 1.53215C131.559 1.04228 130.993 0.660469 130.369 0.398723C129.708 0.139379 129.017 0.00250244 128.307 0.00250244C126.859 0.00250244 125.63 0.509185 124.607 1.53215C123.565 2.57433 123.009 3.79181 123.009 5.27344C123.009 5.96262 123.167 6.63019 123.433 7.24974C123.724 7.8957 124.108 8.46241 124.607 8.96189C125.632 9.98726 126.854 10.518 128.307 10.518Z" fill="#FAFAFA"/>
<path d="M128.307 53.5691C128.955 53.5691 129.579 53.449 130.181 53.1801C130.762 52.9351 131.278 52.5845 131.723 52.1403C132.171 51.6912 132.517 51.1606 132.767 50.5602C133.024 49.9863 133.151 49.3668 133.151 48.7376V20.0152C133.151 19.3644 133.045 18.7305 132.796 18.1182C132.575 17.5394 132.243 17.0303 131.809 16.5981C131.36 16.1491 130.83 15.8033 130.232 15.5535C129.644 15.2966 129.034 15.1693 128.391 15.1693C127.718 15.1693 127.077 15.3014 126.453 15.5583C125.865 15.8009 125.315 16.1443 124.85 16.6077C124.377 17.0544 124.012 17.5875 123.746 18.1806C123.484 18.7593 123.347 19.3789 123.347 20.0152V48.7376C123.347 49.3644 123.486 49.9863 123.746 50.5578C124.012 51.1485 124.377 51.6816 124.862 52.1403C125.308 52.5869 125.841 52.9327 126.42 53.1801C127.017 53.4394 127.654 53.5691 128.307 53.5691Z" fill="#FAFAFA"/>
<path fill-rule="evenodd" clip-rule="evenodd" d="M166.919 52.0466C164.509 53.0648 161.993 53.5691 159.374 53.5691C156.765 53.5691 154.235 53.0768 151.832 52.061C149.457 51.0525 147.343 49.6357 145.516 47.8155C143.691 45.9977 142.256 43.9157 141.245 41.5408C140.22 39.1298 139.726 36.606 139.726 33.9838V5.10288C139.726 4.40889 139.851 3.72451 140.117 3.08095C140.367 2.47582 140.715 1.9091 141.166 1.43123C141.605 0.991789 142.136 0.650799 142.729 0.408264C143.346 0.144117 143.984 0.0168457 144.642 0.0168457C145.307 0.0168457 145.948 0.148919 146.562 0.405862C147.153 0.650799 147.688 0.991789 148.144 1.44564C148.572 1.9019 148.903 2.4566 149.129 3.05934C149.373 3.7125 149.486 4.40649 149.486 5.10288V19.1483L150.615 17.7963C151.563 16.6581 153.073 15.8921 154.427 15.3566C156.004 14.7346 157.672 14.3264 159.374 14.3264C161.991 14.3264 164.509 14.8283 166.919 15.8489C169.286 16.8478 171.394 18.2502 173.204 20.0752C175.023 21.9074 176.428 24.0278 177.433 26.4075C178.456 28.8257 178.955 31.3615 178.955 33.9838C178.955 36.5964 178.463 39.1202 177.448 41.5288C176.444 43.9037 175.026 45.9952 173.206 47.8179C171.389 49.6357 169.288 51.0453 166.919 52.0466ZM155.586 43.0055C156.796 43.5122 158.063 43.7644 159.374 43.7644C160.687 43.7644 161.967 43.5122 163.177 43.0055C164.353 42.5133 165.402 41.8121 166.302 40.9116C167.217 39.9967 167.934 38.9521 168.436 37.7586C168.943 36.5555 169.195 35.29 169.195 33.9837C169.195 32.6774 168.943 31.4095 168.436 30.2064C167.937 29.0153 167.214 27.966 166.302 27.0534C165.407 26.1577 164.348 25.4638 163.177 24.9739C161.967 24.4672 160.687 24.2151 159.374 24.2151C158.063 24.2151 156.796 24.4672 155.586 24.9739C154.415 25.4662 153.358 26.1601 152.453 27.0486C151.546 27.9732 150.814 29.0201 150.303 30.1992C149.782 31.4047 149.527 32.6702 149.527 33.9837C149.527 35.2948 149.782 36.5627 150.303 37.7658C150.816 38.9497 151.539 39.9991 152.449 40.9116C153.351 41.8145 154.407 42.5109 155.586 43.0055Z" fill="#FAFAFA"/>
<path d="M189.446 53.5692C190.771 53.5692 191.882 53.1129 192.821 52.1812C193.26 51.7466 193.601 51.2471 193.841 50.6948C194.091 50.0776 194.206 49.4293 194.206 48.7665V35.259C194.235 33.835 194.53 32.4734 195.094 31.1647C195.649 29.8776 196.436 28.7226 197.42 27.7236C198.39 26.7415 199.514 25.949 200.776 25.3919C202.068 24.8228 203.422 24.5298 204.845 24.501H205.102C205.777 24.501 206.451 24.3809 207.078 24.1336C207.69 23.8935 208.249 23.5549 208.715 23.113C209.685 22.1453 210.186 20.9975 210.186 19.6263C210.186 18.2815 209.819 17.0713 208.859 16.1107C207.853 15.1022 206.49 14.7804 205.102 14.7804H204.776C202.101 14.8332 199.521 15.3759 197.065 16.4277C194.66 17.4627 192.511 18.9011 190.644 20.7333C188.752 22.5919 187.273 24.7531 186.188 27.1737C185.098 29.6062 184.527 32.1709 184.445 34.8196V48.7665C184.445 49.4149 184.568 50.0344 184.839 50.6227C185.11 51.2111 185.497 51.7274 185.955 52.1812C186.411 52.6303 186.942 52.9641 187.523 53.2018C188.145 53.4419 188.778 53.5692 189.446 53.5692Z" fill="#FAFAFA"/>
<path fill-rule="evenodd" clip-rule="evenodd" d="M230.598 53.5712C241.556 53.5712 250.439 44.7963 250.439 33.9719C250.439 23.1475 241.556 14.3726 230.598 14.3726C219.64 14.3726 210.756 23.1475 210.756 33.9719C210.756 44.7963 219.64 53.5712 230.598 53.5712ZM226.536 43.6137C227.825 44.1504 229.183 44.4252 230.581 44.4252C231.999 44.4252 233.373 44.1504 234.683 43.6137C235.964 43.0924 237.103 42.3477 238.08 41.3744C239.059 40.4012 239.824 39.2738 240.361 38.0052C240.906 36.7161 241.18 35.3628 241.18 33.9658C241.18 32.5688 240.908 31.2129 240.361 29.9264C239.826 28.6578 239.059 27.5279 238.08 26.5546C237.106 25.5865 235.959 24.8495 234.683 24.3308C233.373 23.7966 231.999 23.5193 230.581 23.5193C229.183 23.5193 227.825 23.7966 226.536 24.3308C225.272 24.8572 224.128 25.5916 223.159 26.5546C222.178 27.5305 221.408 28.6527 220.85 29.9161C220.282 31.2001 220.016 32.5611 220.016 33.9658C220.016 35.3679 220.282 36.729 220.85 38.013C221.408 39.2764 222.178 40.3986 223.159 41.3744C224.131 42.34 225.267 43.0847 226.536 43.6137Z" fill="#FAFAFA"/>
</svg>
