<svg width="65" height="65" viewBox="0 0 65 65" fill="none" xmlns="http://www.w3.org/2000/svg">
<path fill-rule="evenodd" clip-rule="evenodd" d="M32.375 9.25C24.7121 9.25 18.5 15.462 18.5 23.125C18.5 30.7879 24.7121 37 32.375 37C40.0379 37 46.25 30.7879 46.25 23.125C46.25 15.462 40.0379 9.25 32.375 9.25Z" fill="#AEAEAE"/>
<path fill-rule="evenodd" clip-rule="evenodd" d="M4.625 32.375C4.625 17.0491 17.0491 4.625 32.375 4.625C47.7009 4.625 60.125 17.0491 60.125 32.375C60.125 39.7729 57.23 46.4949 52.5111 51.4695C52.5317 51.4476 52.5523 51.4258 52.5728 51.4041C50.8255 45.7406 45.5495 41.625 39.3123 41.625H25.4373C19.2002 41.625 13.9242 45.7403 12.1768 51.4039C7.4946 46.4359 4.625 39.7405 4.625 32.375ZM32.3748 64.75C14.4947 64.75 0 50.2552 0 32.375C0 14.4948 14.4948 0 32.375 0C50.2552 0 64.75 14.4948 64.75 32.375C64.75 50.2552 50.255 64.75 32.3748 64.75Z" fill="#AEAEAE"/>
</svg>
