<svg width="99" height="94" viewBox="0 0 99 94" fill="none" xmlns="http://www.w3.org/2000/svg">
<path d="M10 35.5194H12.3062L88.0957 26H96C97.1046 26 98 26.8954 98 28V89.3378C98 90.4424 97.1046 91.3378 96 91.3378L59.4885 91.3379C59.0853 91.3379 58.693 91.4627 58.3537 91.6804C55.8833 93.2658 54.0716 93.5696 51.6102 91.7779C51.2355 91.5051 50.79 91.3379 50.3265 91.3379L10 91.3378C8.89543 91.3378 8 90.4424 8 89.3378V37.5194C8 36.4149 8.89543 35.5194 10 35.5194Z" fill="#AEAEAE" stroke="#CBCBCB" strokeWidth="2"/>
<path d="M3 86.9999V29.2344C3 28.1298 3.89543 27.2344 5 27.2344H56.04C66.9226 16.3342 83.7968 18.8002 92.3286 20.2208C93.2943 20.3816 94 21.2182 94 22.1971V79.4795C94 80.7141 92.8889 81.6513 91.6648 81.4909C74.0885 79.1886 60.6895 84.2059 56.04 88.9999H5C3.89543 88.9999 3 88.1045 3 86.9999Z" fill="#AEAEAE"/>
<path d="M56.04 88.9999H5C3.89543 88.9999 3 88.1045 3 86.9999V29.2344C3 28.1298 3.89543 27.2344 5 27.2344H56.04M56.04 88.9999V27.2344M56.04 88.9999C60.6895 84.2059 74.0885 79.1886 91.6648 81.4909C92.8889 81.6513 94 80.7141 94 79.4795V22.1971C94 21.2182 93.2943 20.3816 92.3286 20.2208C83.7968 18.8002 66.9226 16.3342 56.04 27.2344" stroke="#CBCBCB" strokeWidth="2"/>
<path d="M1 84.0961V16.0961C1 14.9915 1.89543 14.0961 3 14.0961H52C62.4608 1.39367 78.6793 0.206407 86.8853 1.3272C87.8299 1.45622 88.5 2.28237 88.5 3.23573V70.6565C88.5 71.9186 87.3404 72.8612 86.0894 72.6948C69.2703 70.4577 56.4561 80.526 52 86.0961H3C1.89543 86.0961 1 85.2007 1 84.0961Z" fill="#AEAEAE"/>
<path d="M52 86.0961H3C1.89543 86.0961 1 85.2007 1 84.0961V16.0961C1 14.9915 1.89543 14.0961 3 14.0961H52M52 86.0961V14.0961M52 86.0961C56.4561 80.526 69.2703 70.4577 86.0894 72.6948C87.3404 72.8612 88.5 71.9186 88.5 70.6565V3.23573C88.5 2.28237 87.8299 1.45622 86.8853 1.3272C78.6793 0.206407 62.4608 1.39367 52 14.0961" stroke="#CBCBCB" strokeWidth="2"/>
<path d="M60 59C63.5714 56.8878 72.1714 52.9801 78 54.2475" stroke="#CBCBCB" strokeWidth="2" strokeLinecap="round"/>
<path d="M60 66C63.5714 63.8878 72.1714 59.9801 78 61.2475" stroke="#CBCBCB" strokeWidth="2" strokeLinecap="round"/>
<path d="M60 73C63.5714 70.8878 72.1714 66.9801 78 68.2475" stroke="#CBCBCB" strokeWidth="2" strokeLinecap="round"/>
<path d="M60 52C63.5714 49.8878 72.1714 45.9801 78 47.2475" stroke="#CBCBCB" strokeWidth="2" strokeLinecap="round"/>
<path d="M60 45C63.5714 42.4653 72.1714 37.7762 78 39.297" stroke="#CBCBCB" strokeWidth="2" strokeLinecap="round"/>
<path d="M60 37C63.5714 34.8878 72.1714 30.9801 78 32.2475" stroke="#CBCBCB" strokeWidth="2" strokeLinecap="round"/>
<path d="M60 30C63.5714 27.8878 72.1714 23.9801 78 25.2475" stroke="#CBCBCB" strokeWidth="2" strokeLinecap="round"/>
<path d="M60 23C63.5714 20.8878 72.1714 16.9801 78 18.2475" stroke="#CBCBCB" strokeWidth="2" strokeLinecap="round"/>
<path d="M60 16C63.5714 13.8878 72.1714 9.98014 78 11.2475" stroke="#CBCBCB" strokeWidth="2" strokeLinecap="round"/>
<path d="M13.6636 32.248C12.9116 32.9362 11.9501 33.2803 10.7788 33.2803C9.32961 33.2803 8.19029 32.8154 7.36086 31.8857C6.53143 30.9515 6.11672 29.6709 6.11672 28.0439C6.11672 26.2848 6.5884 24.929 7.53176 23.9766C8.35207 23.1471 9.39569 22.7324 10.6626 22.7324C12.3579 22.7324 13.5975 23.2884 14.3814 24.4004C14.8143 25.0247 15.0467 25.6514 15.0786 26.2803H12.9732C12.8364 25.7972 12.661 25.4326 12.4468 25.1865C12.064 24.749 11.4966 24.5303 10.7446 24.5303C9.97902 24.5303 9.37518 24.8402 8.93312 25.46C8.49107 26.0752 8.27004 26.9479 8.27004 28.0781C8.27004 29.2083 8.50246 30.056 8.9673 30.6211C9.43671 31.1816 10.0314 31.4619 10.7515 31.4619C11.4898 31.4619 12.0526 31.2204 12.44 30.7373C12.6542 30.4775 12.8319 30.0879 12.9732 29.5684H15.0581C14.8758 30.6667 14.411 31.5599 13.6636 32.248ZM22.4702 33V28.502H18.5327V33H16.4477V22.9238H18.5327V26.7656H22.4702V22.9238H24.562V33H22.4702Z" fill="#363636"/>
<path d="M30 21H45" stroke="#CBCBCB" strokeWidth="2" strokeLinecap="round"/>
<path d="M30 28H45" stroke="#CBCBCB" strokeWidth="2" strokeLinecap="round"/>
<path d="M30 35H45" stroke="#CBCBCB" strokeWidth="2" strokeLinecap="round"/>
<path d="M8 42L45 42" stroke="#CBCBCB" strokeWidth="2" strokeLinecap="round"/>
<path d="M8 49L45 49" stroke="#CBCBCB" strokeWidth="2" strokeLinecap="round"/>
<path d="M8 56L45 56" stroke="#CBCBCB" strokeWidth="2" strokeLinecap="round"/>
<path d="M8 63L45 63" stroke="#CBCBCB" strokeWidth="2" strokeLinecap="round"/>
<path d="M8 70L45 70" stroke="#CBCBCB" strokeWidth="2" strokeLinecap="round"/>
<path d="M8 77L45 77" stroke="#CBCBCB" strokeWidth="2" strokeLinecap="round"/>
</svg>
