<svg width="14" height="13" viewBox="0 0 14 13" fill="none" xmlns="http://www.w3.org/2000/svg">
<g id="Frame 675">
<rect y="0.899902" width="14" height="11.2" rx="1" fill="white"/>
<path id="Shape" fill-rule="evenodd" clip-rule="evenodd" d="M0.629658 11.4736H13.3704V3.25781H0.629658V11.4736ZM5.14818 9.18351H9.0741V9.92033H5.14818V9.18351ZM1.85084 9.35588L4.39259 7.23433L1.99896 5.23643L2.47509 4.67196L5.48253 7.1822L2.32696 9.92035L1.85084 9.35588ZM0.629658 1.69636H6.74076V2.43318H0.629658V1.69636ZM12.6297 2.06477C12.6297 1.8613 12.7965 1.69636 13 1.69636C13.2035 1.69636 13.3704 1.8613 13.3704 2.06477C13.3704 2.26823 13.2035 2.43318 13 2.43318C12.7965 2.43318 12.6297 2.26823 12.6297 2.06477ZM14 11.4736C14 11.8195 13.7196 12.0999 13.3737 12.0999H1C0.447716 12.0999 0 11.6522 0 11.0999V1.8999C0 1.34762 0.447715 0.899902 1 0.899902H13C13.5523 0.899902 14 1.34762 14 1.8999V11.4736Z" fill="#418DFE"/>
</g>
</svg>
