<svg width="45" height="45" viewBox="0 0 45 45" fill="none" xmlns="http://www.w3.org/2000/svg">
<path d="M0 22.5C0 10.0736 10.0736 0 22.5 0C34.9264 0 45 10.0736 45 22.5C45 34.9264 34.9264 45 22.5 45H0V22.5Z" fill="white"/>
<path d="M0 22.5C0 10.0736 10.0736 0 22.5 0C34.9264 0 45 10.0736 45 22.5C45 34.9264 34.9264 45 22.5 45H0V22.5Z" fill="url(#paint0_linear_13055_135869)"/>
<path d="M11.5 32C11.5 32.8284 12.1716 33.5 13 33.5L26.5 33.5C27.3284 33.5 28 32.8284 28 32C28 31.1716 27.3284 30.5 26.5 30.5H14.5V18.5C14.5 17.6716 13.8284 17 13 17C12.1716 17 11.5 17.6716 11.5 18.5L11.5 32ZM30.9393 11.9393L11.9393 30.9393L14.0607 33.0607L33.0607 14.0607L30.9393 11.9393Z" fill="url(#paint1_linear_13055_135869)"/>
<defs>
<linearGradient id="paint0_linear_13055_135869" x1="22.5" y1="0" x2="22.5" y2="45" gradientUnits="userSpaceOnUse">
<stop stop-color="#5FB2FF"/>
<stop offset="1" stop-color="#0085FF" stop-opacity="0.2"/>
</linearGradient>
<linearGradient id="paint1_linear_13055_135869" x1="18.5" y1="27.5" x2="44.5" y2="2.00001" gradientUnits="userSpaceOnUse">
<stop stop-color="#4685FF"/>
<stop offset="1" stop-color="#C0D5FF" stop-opacity="0"/>
</linearGradient>
</defs>
</svg>
