<svg width="31" height="31" viewBox="0 0 31 31" fill="none" xmlns="http://www.w3.org/2000/svg">
<path d="M15.5 0C6.975 0 0 6.975 0 15.5C0 24.025 6.975 31 15.5 31C24.025 31 31 24.025 31 15.5C31 6.975 24.025 0 15.5 0Z" fill="#D41F26"/>
<path d="M22.7621 8.81223C21.7288 7.7789 20.1788 7.7789 19.1454 8.81223L15.7871 12.1706L12.4288 8.81223C11.3954 7.7789 9.84544 7.7789 8.81211 8.81223C7.77878 9.84556 7.77878 11.3956 8.81211 12.4289L12.1704 15.7872L8.81211 19.1456C7.77878 20.1789 7.77878 21.7289 8.81211 22.7622C9.32878 23.2789 10.1038 23.5372 10.6204 23.5372C11.1371 23.5372 11.9121 23.2789 12.4288 22.7622L15.7871 19.4039L19.1454 22.7622C19.6621 23.2789 20.4371 23.5372 20.9538 23.5372C21.4704 23.5372 22.2454 23.2789 22.7621 22.7622C23.7954 21.7289 23.7954 20.1789 22.7621 19.1456L19.4038 15.7872L22.7621 12.4289C23.7954 11.3956 23.7954 9.84556 22.7621 8.81223Z" fill="white"/>
</svg>
