<svg width="12" height="16" viewBox="0 0 12 16" fill="none" xmlns="http://www.w3.org/2000/svg">
<g id="documents">
<path id="Path" d="M10.8297 14.3582C10.8297 14.9105 10.3822 15.3542 9.82992 15.3542C7.93987 15.3542 3.88262 15.3542 1.99772 15.3542C1.44544 15.3542 1 14.9126 1 14.3603C1 11.7475 1 4.93741 1 2.35056C1 1.79828 1.44772 1.35425 2 1.35425H7.4384C7.84863 1.35425 8.21725 1.60479 8.36822 1.98623L8.69591 2.81414C8.79597 3.06695 8.99465 3.26812 9.2462 3.37131L10.2093 3.76637C10.5846 3.92035 10.8297 4.28209 10.8297 4.6878C10.8297 6.61319 10.8297 12.0769 10.8297 14.3582Z" fill="white" stroke="#418DFE"/>
<path id="Path_2" d="M10.3415 3.74138H9.35229C8.80001 3.74138 8.35229 3.29366 8.35229 2.74138V1.7522L9.34689 2.74679L10.3415 3.74138Z" fill="#52AAFF" stroke="#418DFE"/>
<path id="Shape" fill-rule="evenodd" clip-rule="evenodd" d="M2.23125 6.7971H5.26177C5.44774 6.7971 5.59849 6.64555 5.59849 6.45861C5.59849 6.27166 5.44774 6.12012 5.26177 6.12012H2.23125C2.04528 6.12012 1.89453 6.27166 1.89453 6.45861C1.89453 6.64555 2.04528 6.7971 2.23125 6.7971ZM9.30246 8.15123H2.23126C2.04529 8.15123 1.89454 7.99969 1.89454 7.81274C1.89454 7.62579 2.04529 7.47425 2.23126 7.47425H9.30246C9.4884 7.47425 9.63918 7.62579 9.63918 7.81274C9.63918 7.99969 9.4884 8.15123 9.30246 8.15123ZM2.23126 9.50523H9.30246C9.4884 9.50523 9.63918 9.35369 9.63918 9.16674C9.63918 8.97979 9.4884 8.82825 9.30246 8.82825H2.23126C2.04529 8.82825 1.89454 8.97979 1.89454 9.16674C1.89454 9.35369 2.04529 9.50523 2.23126 9.50523ZM9.30246 10.859H2.23126C2.04529 10.859 1.89454 10.7074 1.89454 10.5205C1.89454 10.3336 2.04529 10.182 2.23126 10.182H9.30246C9.4884 10.182 9.63918 10.3336 9.63918 10.5205C9.63918 10.7074 9.4884 10.859 9.30246 10.859ZM2.23126 12.213H9.30246C9.4884 12.213 9.63918 12.0614 9.63918 11.8745C9.63918 11.6876 9.4884 11.536 9.30246 11.536H2.23126C2.04529 11.536 1.89454 11.6876 1.89454 11.8745C1.89454 12.0614 2.04529 12.213 2.23126 12.213ZM2.23126 13.5672H9.30246C9.4884 13.5672 9.63918 13.4157 9.63918 13.2288C9.63918 13.0418 9.4884 12.8903 9.30246 12.8903H2.23126C2.04529 12.8903 1.89454 13.0418 1.89454 13.2288C1.89454 13.4157 2.04529 13.5672 2.23126 13.5672Z" fill="#418DFE"/>
</g>
</svg>
