<svg width="20" height="20" viewBox="0 0 20 20" fill="none" xmlns="http://www.w3.org/2000/svg">
<path d="M10 20C15.5228 20 20 15.5228 20 10C20 4.47715 15.5228 0 10 0C4.47715 0 0 4.47715 0 10C0 15.5228 4.47715 20 10 20Z" fill="#8AD7F8"/>
<path d="M10 20C15.5228 20 20 15.5228 20 10C20 4.47715 15.5228 0 10 0C4.47715 0 0 4.47715 0 10C0 15.5228 4.47715 20 10 20Z" fill="#55C0EB"/>
<path d="M8.93763 17.0625C9.00013 17.0625 9.06263 17 9.12513 16.9375V16.75C9.12513 16.75 9.00013 16.8125 8.93763 16.8125C8.87513 16.8125 8.87513 16.8125 8.81263 16.875C8.81263 16.75 8.87513 16.6875 8.87513 16.625C8.75013 16.625 8.62513 16.5625 8.50013 16.5625V16.5L8.87513 16.3125V16.1875L8.12513 16.5625C8.06263 16.5625 7.93763 16.625 7.93763 16.625C7.93763 16.4375 7.50013 16.875 7.37513 16.875C7.18763 16.875 7.50013 16.25 7.31263 16.1875C7.06263 16.125 6.62513 16.4375 6.43763 16.25C6.31263 16.1875 6.25013 15.9375 6.18763 15.8125C6.06263 15.625 6.06263 15.375 5.93763 15.1875C5.75013 15 5.75013 14.875 5.87513 14.625C6.00013 14.375 5.93763 13.75 5.81263 13.5625H5.75013C5.56263 13.5625 5.56263 13.375 5.56263 13.25C5.50013 13.0625 5.43763 12.8125 5.37513 12.625C5.31263 12.625 5.31263 12.625 5.25013 12.6875C5.31263 12.875 5.31263 13.0625 5.37513 13.25H5.31263C5.25013 13.125 5.12513 12.9375 5.06263 12.8125C5.00013 12.5 4.68763 12.3125 4.81263 11.9375C4.81263 11.875 4.81263 11.8125 4.75013 11.8125C4.56263 11.5625 4.37513 11.25 4.00013 11.25C3.93763 11.25 3.87513 11.1875 3.87513 11.125L3.62513 10.875C3.50013 10.75 3.37513 10.625 3.31263 10.4375C3.25013 10.25 3.06263 10.125 2.93763 10.0625C2.81263 10 2.75013 10 2.68763 9.875C2.62513 9.6875 2.68763 9.5 2.93763 9.375C3.31263 9.1875 3.43763 8.9375 3.31263 8.5C3.31263 8.4375 3.31263 8.375 3.25013 8.3125C3.18763 8 3.18763 7.625 2.87513 7.375C2.81263 7.3125 2.75013 7.1875 2.81263 7.125C3.06263 6.625 3.25013 6.1875 3.50013 5.6875C3.62513 5.5 3.75013 5.375 3.75013 5.125C3.75013 4.9375 3.93763 4.8125 4.06263 4.625C4.06263 4.5625 4.18763 4.5625 4.18763 4.5625V4.0625H3.93763V4C4.00013 4 4.00013 3.9375 4.12513 3.875C3.87513 3.8125 3.75013 3.75 3.62513 3.6875C3.81263 4.0625 3.81263 4.0625 3.25013 4.375C3.31263 4.375 3.37513 4.4375 3.37513 4.5625C3.18763 4.625 2.93763 4.625 3.00013 5C2.81263 4.6875 2.75013 4.875 2.75013 5C2.56263 4.9375 2.37513 4.9375 2.12513 4.875C2.18763 5.125 2.18763 5.3125 2.25013 5.5C2.18763 5.375 2.12513 5.3125 2.06263 5.25C2.00013 5.0625 1.81263 5.0625 1.68763 5.125C1.56263 5.25 1.37513 5.25 1.25013 5.3125C1.18763 5.3125 1.18763 5.3125 1.12513 5.375C0.750134 6.0625 0.437634 6.875 0.250134 7.6875C0.312634 7.6875 0.437634 7.8125 0.500134 7.8125C0.437634 7.875 0.375134 7.9375 0.312634 7.9375C0.125134 8.0625 0.187634 8.4375 0.437634 8.625C0.625134 8.625 0.750134 8.75 0.812634 8.8125L1.18763 9.375L1.25013 9.4375C1.43763 9.4375 1.56263 9.625 1.75013 9.75C1.81263 9.8125 1.93763 9.875 2.00013 9.75H2.06263V10.0625C2.25013 10 2.37513 10 2.50013 10C2.56263 10 2.62513 10 2.68763 10.0625C2.75013 10.0625 2.81263 10.125 2.81263 10.125C3.12513 10.1875 3.25013 10.3125 3.06263 10.625C2.93763 10.8125 3.06263 10.9375 3.25013 11C3.31263 11 3.37513 11.0625 3.37513 11.0625C3.43763 11.25 3.12513 11.375 3.37513 11.5625C3.75013 11.3125 4.00013 11.375 4.06263 11.8125C4.06263 11.9375 4.00013 12.125 4.00013 12.25C3.93763 12.5 3.75013 12.6875 3.43763 12.5625C3.06263 12.4375 2.68763 12.3125 2.37513 12.125C2.37513 12.125 2.31263 12.25 2.25013 12.25C2.00013 12.375 1.75013 12.3125 1.62513 12.625H1.50013C1.31263 12.625 1.12513 12.5625 1.06263 12.625C0.875134 12.8125 0.687634 12.625 0.437634 12.625C0.687634 13.75 1.25013 14.875 1.93763 15.875C2.06263 16 2.18763 16.1875 2.31263 16.3125C2.37513 16.25 2.50013 16.125 2.18763 16C2.31263 15.9375 2.43763 15.9375 2.56263 15.9375C2.50013 16 2.50013 16.0625 2.43763 16.125C2.50013 16.125 2.56263 16.1875 2.62513 16.1875C2.62513 15.9375 2.81263 16.125 2.87513 16.125C3.12513 16.25 3.31263 16.375 3.56263 16.5C3.43763 16.5 3.37513 16.4375 3.25013 16.4375C3.18763 16.4375 3.06263 16.375 3.00013 16.375C3.12513 16.5625 3.18763 16.75 3.25013 16.875C3.43763 16.9375 3.62513 16.9375 3.81263 17.0625C4.00013 17.125 4.12513 17.25 4.25013 17.375C4.62513 17.625 4.81263 17.625 5.12513 17.3125C4.87513 17.3125 4.68763 17.25 4.50013 17.25C4.43763 17.125 4.37513 17 4.37513 16.875H4.56263C5.00013 17.0625 5.37513 17.25 5.87513 17.25C6.18763 17.25 6.43763 17.4375 6.68763 17.5C7.06263 17.5625 7.43763 17.625 7.81263 17.75C8.18763 17.8125 8.62513 17.75 9.06263 17.5625L8.68763 17.375C8.87513 17.375 9.06263 17.375 9.25013 17.3125C9.25013 17.25 9.25013 17.25 9.31263 17.1875C9.12513 17.1875 8.93763 17.125 8.75013 17.125C8.75013 17.0625 8.87513 17.0625 8.93763 17.0625ZM17.5626 15.75C17.6251 15.625 17.6251 15.5 17.6876 15.375C17.7501 15.1875 17.7501 15.0625 17.7501 14.875L17.9376 14.125V13.9375C17.9376 13.8125 17.8751 13.6875 17.8751 13.5625V13.125V13C18.1876 12.6875 18.1251 12.25 18.1876 11.875C18.1876 11.75 18.2501 11.625 18.2501 11.5V10.8125H18.3126C18.3126 10.9375 18.3126 11 18.3751 11.125C18.3751 11.25 18.4376 11.3125 18.5001 11.4375C18.5626 11.375 18.5626 11.375 18.5626 11.3125L18.7501 10.5625V10.375C18.6251 10.125 18.6876 9.875 18.6876 9.625C18.6876 9.375 18.6876 9.125 18.5626 8.875C18.4376 8.6875 18.4376 8.5625 18.4376 8.375V8.125H18.3751C18.3126 8.1875 18.1876 8.25 18.0626 8.375C18.1251 8.1875 18.2501 8.0625 18.2501 7.875C18.2501 7.75 18.1876 7.5625 18.1876 7.375H18.0001C17.9376 7.5 17.9376 7.5625 17.9376 7.625C17.8751 7.5 17.8126 7.375 17.7501 7.3125C17.6876 7.25 17.6876 7.125 17.6251 7.0625C17.8751 7.125 18.0626 7.125 18.3751 7.1875C18.3126 7 18.2501 6.8125 18.1251 6.625C18.1251 6.875 18.0626 6.875 18.0001 6.9375C18.0626 6.75 18.0626 6.5 18.1251 6.3125C18.1251 6.25 18.0001 6.125 18.0001 6C18.0001 5.8125 18.0001 5.5625 17.9376 5.375L17.7501 4.8125C17.6876 4.625 17.6876 4.4375 17.6876 4.1875L17.7501 4.25C17.8126 4.1875 17.8751 4.1875 17.9376 4.125C17.9376 4.0625 18.0001 4.0625 18.0001 4C17.6876 3.5625 17.3751 3.1875 17.0001 2.875V2.9375H16.8751V2.75C16.3126 2.1875 15.6251 1.6875 14.9376 1.3125C14.8751 1.4375 14.7501 1.5 14.6876 1.625C14.5626 1.8125 14.2501 1.875 14.0001 2.0625C14.1251 2.125 14.2501 2.125 14.3126 2.1875C14.3751 2.25 14.5001 2.3125 14.5001 2.375C14.5001 2.375 14.4376 2.5 14.3751 2.5C14.1876 2.5625 14.0001 2.625 14.0001 2.8125C14.0001 3 14.0626 3.1875 14.0626 3.375C13.6251 3.4375 13.3126 3.25 13.3126 2.875C13.3126 2.6875 13.3126 2.5 13.3751 2.25C13.5001 1.875 13.5001 1.875 13.1251 1.6875C13.2501 1.375 13.3126 1.0625 13.4376 0.8125H13.8126L13.8751 0.75C12.6251 0.25 11.3126 0 10.0001 0H9.68763C9.81263 0.1875 10.0001 0.375 9.68763 0.5625V0.625C9.68763 0.9375 9.68763 0.9375 9.31263 0.9375C9.00013 0.9375 8.87513 1.0625 8.68763 1.1875C8.37513 1.4375 8.06263 1.625 7.56263 1.5C7.37513 1.4375 7.12513 1.4375 7.00013 1.5625C6.50013 1.875 6.06263 2.1875 5.62513 2.4375C5.56263 2.5 5.43763 2.5625 5.37513 2.625C5.25013 2.6875 5.12513 2.75 5.25013 2.875C5.25013 2.9375 5.31263 3 5.37513 3.125C5.56263 3.5625 6.00013 3.8125 6.62513 3.75C6.68763 3.75 6.75013 3.8125 6.81263 3.8125C6.87513 3.9375 7.00013 3.9375 7.12513 3.875C7.50013 3.75 7.56263 3.75 7.81263 4.0625C7.93763 4.1875 8.06263 4.25 8.25013 4.1875C8.37513 4.125 8.50013 4.125 8.62513 4.0625C9.00013 3.875 9.37513 3.8125 9.75013 4.0625H10.0001C10.0626 4.4375 10.8751 4.8125 11.3751 4.8125L11.1876 4.4375C11.1251 4.3125 11.0001 4.1875 11.3126 4.125C11.6876 4.6875 11.9376 5.3125 12.6876 5.625L13.0001 5.3125C12.9376 5.1875 12.7501 5 12.8126 4.9375C13.0001 4.75 13.1876 4.625 13.4376 4.5C13.5001 4.5 13.5001 4.5625 13.5626 4.5625C13.5001 4.625 13.4376 4.6875 13.3751 4.8125C13.3126 4.9375 13.1876 5 13.1251 5.125C13.1251 5.1875 13.1876 5.3125 13.1876 5.375C12.9376 5.625 13.1251 6 13.1251 6.25C13.1251 6.375 13.0626 6.4375 13.0001 6.5625C13.0001 6.625 12.9376 6.6875 12.9376 6.625C12.8126 6.625 12.7501 6.6875 12.7501 6.6875C12.7501 6.75 12.8126 6.8125 12.8126 6.9375C12.2501 6.9375 11.8751 7.1875 11.3751 7.5C11.5626 7.5625 11.8126 7.6875 12.0001 7.6875C12.1876 7.6875 12.2501 7.75 12.3751 7.875C12.6251 8.0625 12.8126 8.25 13.0626 8.4375C13.1251 8.5 13.1876 8.5 13.2501 8.5625C13.1876 8.625 13.1251 8.625 13.0626 8.6875C13.0626 8.75 13.0626 8.8125 13.0001 8.8125C12.8751 8.9375 12.6251 9 12.6251 9.125C12.5626 9.5 12.2501 9.5 12.0626 9.5C11.6876 9.4375 11.5001 9.6875 11.2501 9.8125C11.1251 9.875 11.0626 10 11.0001 10.0625L11.0626 10.125C11.1876 10 11.3751 9.9375 11.4376 9.8125C11.6251 9.625 11.9376 9.5625 12.1876 9.6875C12.0626 9.8125 11.9376 9.9375 11.8126 10.125H12.0626C12.0001 10.25 11.8126 10.375 12.0001 10.5C12.1876 10.625 12.3126 10.5625 12.4376 10.4375L12.5626 10.3125C12.6251 10.25 12.7501 10.1875 12.8126 10.25C12.8751 10.3125 13.0001 10.4375 13.0001 10.5C13.0001 10.875 13.1876 11.1875 13.3751 11.4375C13.5001 11.5625 13.6876 11.6875 13.8751 11.75C14.0001 11.75 14.1876 11.6875 14.3751 11.625C14.4376 11.6875 14.5001 11.8125 14.5626 11.875C14.6876 11.6875 14.3751 11.375 14.7501 11.25C14.8126 11.4375 14.8751 11.625 14.8751 11.8125H14.7501C14.8126 12.1875 14.8126 12.25 14.4376 12.25C14.3751 12.25 14.3751 12.3125 14.3126 12.375C14.3751 12.4375 14.4376 12.5 14.5001 12.5C14.5626 12.5 14.6876 12.4375 14.7501 12.375C14.9376 12.5625 15.1251 12.75 15.0626 13.0625C15.0626 13.0625 15.0626 13.125 15.1251 13.125C15.3126 13.5 15.6251 13.625 15.9376 13.8125C16.0626 13.875 16.1251 13.75 16.1251 13.625C16.1251 13.5625 16.1251 13.5 16.1876 13.375C16.6876 13.8125 16.5626 14.3125 16.5001 14.75C16.5001 14.9375 16.5001 15.0625 16.5626 15.25C16.6251 15.375 16.6876 15.5625 16.6251 15.625C16.5001 15.8125 16.6251 15.9375 16.6876 16.125C16.6251 16.0625 16.6251 16.0625 16.5626 16.0625C16.5001 15.875 16.4376 15.625 16.3126 15.4375C16.2501 15.375 16.1251 15.25 16.0626 15.25H15.7501C15.8751 15.4375 15.9376 15.625 16.0626 15.8125C16.1251 15.875 16.1876 15.9375 16.2501 15.9375C16.5001 15.9375 16.4376 16.125 16.5001 16.25V16.8125C16.5001 17 16.5626 17.25 16.5626 17.4375C16.8126 17.1875 17.0626 17 17.2501 16.75C17.3126 16.5625 17.3126 16.3125 17.3126 16.125C17.5001 15.875 17.5626 15.8125 17.5626 15.75Z" fill="#E8EAE9"/>
<path d="M14.6875 1.1875C14.625 1.125 14.5625 1.125 14.5 1.0625L14.125 1.4375H14.375C14.5 1.375 14.5625 1.3125 14.6875 1.1875Z" fill="#E8EAE9"/>
</svg>
