<svg width="357" height="253" viewBox="0 0 357 253" fill="none" xmlns="http://www.w3.org/2000/svg">
<path d="M22.6682 184.957C34.451 184.957 44.0029 175.405 44.0029 163.622C44.0029 151.839 34.451 142.287 22.6682 142.287C10.8854 142.287 1.3335 151.839 1.3335 163.622C1.3335 175.405 10.8854 184.957 22.6682 184.957Z" fill="#FE9967"/>
<path d="M24.4616 184.884C23.8683 184.931 23.2749 184.957 22.6682 184.957C10.8875 184.957 1.3335 175.404 1.3335 163.623C1.3335 151.842 10.8875 142.288 22.6682 142.288C23.2749 142.288 23.8683 142.315 24.4616 142.361C13.5143 143.268 4.91373 152.442 4.91373 163.623C4.91373 174.804 13.5143 183.977 24.4616 184.884Z" fill="#EF8759"/>
<path d="M44.0028 163.623C44.0028 175.404 34.4555 184.957 22.6681 184.957C22.0681 184.957 21.4681 184.931 20.8813 184.884C31.8221 183.971 40.4226 174.797 40.4226 163.623C40.4226 152.449 31.8221 143.275 20.8813 142.361C21.4681 142.315 22.0681 142.288 22.6681 142.288C34.4555 142.288 44.0028 151.842 44.0028 163.623Z" fill="#FFAC88"/>
<path d="M22.6682 180.582C32.0349 180.582 39.628 172.988 39.628 163.622C39.628 154.255 32.0349 146.662 22.6682 146.662C13.3016 146.662 5.7085 154.255 5.7085 163.622C5.7085 172.988 13.3016 180.582 22.6682 180.582Z" fill="#E2E2E2"/>
<path d="M24.4416 180.49C23.8615 180.55 23.2682 180.583 22.6681 180.583C13.3009 180.583 5.70703 172.989 5.70703 163.622C5.70703 154.255 13.3009 146.661 22.6681 146.661C23.2682 146.661 23.8616 146.694 24.4416 146.754C15.9077 147.641 9.2606 154.855 9.2606 163.622C9.2606 172.389 15.9077 179.603 24.4416 180.49Z" fill="#D3D3D3"/>
<path d="M24.2222 180.33C18.9988 177.205 15.4544 171.198 15.4544 164.289C15.4544 156.546 19.9028 149.937 26.1814 147.249C25.8744 147.135 25.5926 146.992 25.3356 146.822C18.4811 149.176 13.501 156.097 13.501 164.289C13.501 171.427 17.2837 177.601 22.7907 180.632C23.2185 180.466 23.6955 180.362 24.2222 180.33Z" fill="#EDEDED"/>
<path d="M39.6276 163.622C39.6276 172.989 32.0338 180.583 22.6665 180.583C22.0664 180.583 21.4731 180.55 20.8931 180.49C29.4269 179.603 36.0807 172.389 36.0807 163.622C36.0807 154.855 29.4269 147.641 20.8931 146.754C21.4731 146.694 22.0664 146.661 22.6665 146.661C32.0338 146.661 39.6276 154.255 39.6276 163.622Z" fill="#EDEDED"/>
<path d="M16.2068 170.963C16.0369 170.963 15.8663 170.899 15.7361 170.769C15.4757 170.509 15.4744 170.087 15.7341 169.826L20.92 164.619C21.1798 164.359 21.6024 164.357 21.8634 164.617C22.1239 164.877 22.1252 165.299 21.8654 165.56L16.6795 170.767C16.5493 170.898 16.3781 170.963 16.2068 170.963ZM22.6688 162.342C22.3003 162.342 22.0021 162.044 22.0021 161.676V153.083C22.0021 152.714 22.3003 152.416 22.6688 152.416C23.0373 152.416 23.3355 152.714 23.3355 153.083V161.676C23.3355 162.044 23.0373 162.342 22.6688 162.342Z" fill="#333333"/>
<path d="M22.668 165.569C23.7432 165.569 24.6148 164.698 24.6148 163.623C24.6148 162.547 23.7432 161.676 22.668 161.676C21.5928 161.676 20.7212 162.547 20.7212 163.623C20.7212 164.698 21.5928 165.569 22.668 165.569Z" fill="#666666"/>
<path d="M22.6681 151.375C23.0366 151.375 23.3348 151.077 23.3348 150.708V149.715C23.3348 149.346 23.0366 149.048 22.6681 149.048C22.2996 149.048 22.0014 149.346 22.0014 149.715V150.708C22.0014 151.077 22.2996 151.375 22.6681 151.375ZM9.7545 162.956H8.76095C8.39244 162.956 8.09424 163.254 8.09424 163.622C8.09424 163.991 8.39244 164.289 8.76095 164.289H9.7545C10.123 164.289 10.4212 163.991 10.4212 163.622C10.4212 163.254 10.123 162.956 9.7545 162.956ZM22.6681 175.869C22.2996 175.869 22.0014 176.167 22.0014 176.536V177.529C22.0014 177.898 22.2996 178.196 22.6681 178.196C23.0366 178.196 23.3348 177.898 23.3348 177.529V176.536C23.3348 176.167 23.0366 175.869 22.6681 175.869ZM36.5759 162.956H35.5823C35.2138 162.956 34.9156 163.254 34.9156 163.622C34.9156 163.991 35.2138 164.289 35.5823 164.289H36.5759C36.9444 164.289 37.2426 163.991 37.2426 163.622C37.2426 163.254 36.9444 162.956 36.5759 162.956Z" fill="#666666"/>
<path d="M11.6619 155.534C11.3513 155.334 10.9392 155.427 10.7412 155.736C10.6833 155.826 10.6279 155.919 10.5746 156.012C10.391 156.332 10.5016 156.739 10.8207 156.922C10.9255 156.982 11.0394 157.011 11.1521 157.011C11.3832 157.011 11.6078 156.89 11.7309 156.676C11.7738 156.601 11.8175 156.527 11.8637 156.455C12.0623 156.145 11.9718 155.732 11.6619 155.534ZM19.1864 150.434C19.0745 150.083 18.702 149.887 18.3492 150C16.1465 150.7 14.1145 151.954 12.4725 153.628C12.2146 153.891 12.2186 154.313 12.4816 154.571C12.6112 154.699 12.7798 154.762 12.9484 154.762C13.121 154.762 13.2941 154.695 13.4244 154.562C14.9147 153.043 16.7573 151.905 18.7528 151.271C19.1038 151.159 19.2978 150.784 19.1864 150.434Z" fill="white"/>
<g filter="url(#filter0_d_7645_28906)">
<path d="M29.6753 46.3369C29.6753 45.7846 30.123 45.3369 30.6753 45.3369H104.869C105.422 45.3369 105.869 45.7846 105.869 46.3369V101.39C105.869 101.943 105.422 102.39 104.869 102.39H30.6753C30.123 102.39 29.6753 101.943 29.6753 101.39V46.3369Z" fill="white"/>
</g>
<rect x="33.7207" y="51.5957" width="22.4533" height="22.4533" fill="#7BC3F4"/>
<circle cx="91.3307" cy="62.8224" r="11.2267" fill="#D4EEFF"/>
<path fill-rule="evenodd" clip-rule="evenodd" d="M67.9658 71.6707C67.9658 72.6782 69.2872 73.0533 69.8166 72.1962L74.2367 65.0394C74.4356 64.7174 74.4356 64.3106 74.2367 63.9885L69.8166 56.8318C69.2872 55.9746 67.9658 56.3498 67.9658 57.3572V59.2808C67.9658 59.8331 67.518 60.2808 66.9658 60.2808H62.6987C62.1464 60.2808 61.6987 60.7285 61.6987 61.2808V67.7468C61.6987 68.2991 62.1464 68.7468 62.6987 68.7468H66.9658C67.518 68.7468 67.9658 69.1945 67.9658 69.7468V71.6707Z" fill="#A1E0E9"/>
<rect x="35.1938" y="85.0918" width="67.3599" height="2.57661" fill="#C4C4C4"/>
<rect x="35.1938" y="90.2441" width="67.3599" height="2.57661" fill="#C4C4C4"/>
<rect x="35.1938" y="95.3975" width="67.3599" height="2.57661" fill="#C4C4C4"/>
<g filter="url(#filter1_d_7645_28906)">
<path d="M29.6753 195.532C29.6753 194.98 30.123 194.532 30.6753 194.532H104.869C105.422 194.532 105.869 194.98 105.869 195.532V250.586C105.869 251.138 105.422 251.586 104.869 251.586H30.6753C30.123 251.586 29.6753 251.138 29.6753 250.586V195.532Z" fill="white"/>
</g>
<rect x="33.7207" y="200.791" width="22.4533" height="22.4533" fill="#7BC3F4"/>
<circle cx="91.3307" cy="212.018" r="11.2267" fill="#D4EEFF"/>
<path fill-rule="evenodd" clip-rule="evenodd" d="M67.9658 220.866C67.9658 221.873 69.2872 222.249 69.8166 221.391L74.2367 214.235C74.4356 213.913 74.4356 213.506 74.2367 213.184L69.8166 206.027C69.2872 205.17 67.9658 205.545 67.9658 206.553V208.476C67.9658 209.028 67.518 209.476 66.9658 209.476H62.6987C62.1464 209.476 61.6987 209.924 61.6987 210.476V216.942C61.6987 217.494 62.1464 217.942 62.6987 217.942H66.9658C67.518 217.942 67.9658 218.39 67.9658 218.942V220.866Z" fill="#A1E0E9"/>
<rect x="35.1929" y="234.287" width="67.3599" height="2.57661" fill="#C4C4C4"/>
<rect x="35.1929" y="239.439" width="67.3599" height="2.57661" fill="#C4C4C4"/>
<rect x="35.1929" y="244.592" width="67.3599" height="2.57661" fill="#C4C4C4"/>
<g filter="url(#filter2_d_7645_28906)">
<path d="M112.929 46.3369C112.929 45.7846 113.377 45.3369 113.929 45.3369H188.123C188.675 45.3369 189.123 45.7846 189.123 46.3369V101.39C189.123 101.943 188.675 102.39 188.123 102.39H113.929C113.377 102.39 112.929 101.943 112.929 101.39V46.3369Z" fill="white"/>
</g>
<rect x="116.975" y="51.5957" width="22.4533" height="22.4533" fill="#7BC3F4"/>
<circle cx="174.585" cy="62.8224" r="11.2267" fill="#D4EEFF"/>
<path fill-rule="evenodd" clip-rule="evenodd" d="M151.219 71.6697C151.219 72.6772 152.54 73.0524 153.07 72.1952L157.49 65.0385C157.689 64.7164 157.689 64.3096 157.49 63.9875L153.07 56.8308C152.54 55.9736 151.219 56.3488 151.219 57.3563V59.2798C151.219 59.8321 150.771 60.2798 150.219 60.2798H145.952C145.399 60.2798 144.952 60.7275 144.952 61.2798V67.7458C144.952 68.2981 145.399 68.7458 145.952 68.7458H150.219C150.771 68.7458 151.219 69.1935 151.219 69.7458V71.6697Z" fill="#A1E0E9"/>
<rect x="118.447" y="85.0898" width="67.3599" height="2.57661" fill="#C4C4C4"/>
<rect x="118.447" y="90.2441" width="67.3599" height="2.57661" fill="#C4C4C4"/>
<rect x="118.447" y="95.3965" width="67.3599" height="2.57661" fill="#C4C4C4"/>
<g filter="url(#filter3_d_7645_28906)">
<path d="M112.929 195.532C112.929 194.98 113.377 194.532 113.929 194.532H188.123C188.675 194.532 189.123 194.98 189.123 195.532V250.586C189.123 251.138 188.675 251.586 188.123 251.586H113.929C113.377 251.586 112.929 251.138 112.929 250.586V195.532Z" fill="white"/>
</g>
<rect x="116.975" y="200.791" width="22.4533" height="22.4533" fill="#7BC3F4"/>
<circle cx="174.585" cy="212.018" r="11.2267" fill="#D4EEFF"/>
<path fill-rule="evenodd" clip-rule="evenodd" d="M151.219 220.866C151.219 221.873 152.54 222.249 153.07 221.391L157.49 214.235C157.689 213.913 157.689 213.506 157.49 213.184L153.07 206.027C152.54 205.17 151.219 205.545 151.219 206.553V208.476C151.219 209.028 150.771 209.476 150.219 209.476H145.952C145.399 209.476 144.952 209.924 144.952 210.476V216.942C144.952 217.494 145.399 217.942 145.952 217.942H150.219C150.771 217.942 151.219 218.39 151.219 218.942V220.866Z" fill="#A1E0E9"/>
<rect x="118.447" y="234.287" width="67.3599" height="2.57661" fill="#C4C4C4"/>
<rect x="118.447" y="239.439" width="67.3599" height="2.57661" fill="#C4C4C4"/>
<rect x="118.447" y="244.592" width="67.3599" height="2.57661" fill="#C4C4C4"/>
<g filter="url(#filter4_d_7645_28906)">
<path d="M196.184 46.3369C196.184 45.7846 196.631 45.3369 197.184 45.3369H271.378C271.93 45.3369 272.378 45.7846 272.378 46.3369V101.39C272.378 101.943 271.93 102.39 271.378 102.39H197.184C196.631 102.39 196.184 101.943 196.184 101.39V46.3369Z" fill="white"/>
</g>
<rect x="200.229" y="51.5957" width="22.4533" height="22.4533" fill="#7BC3F4"/>
<circle cx="257.839" cy="62.8224" r="11.2267" fill="#D4EEFF"/>
<path fill-rule="evenodd" clip-rule="evenodd" d="M234.473 71.6697C234.473 72.6772 235.794 73.0524 236.324 72.1952L240.744 65.0385C240.943 64.7164 240.943 64.3096 240.744 63.9875L236.324 56.8308C235.794 55.9736 234.473 56.3488 234.473 57.3563V59.2798C234.473 59.8321 234.025 60.2798 233.473 60.2798H229.206C228.654 60.2798 228.206 60.7275 228.206 61.2798V67.7458C228.206 68.2981 228.654 68.7458 229.206 68.7458H233.473C234.025 68.7458 234.473 69.1935 234.473 69.7458V71.6697Z" fill="#A1E0E9"/>
<rect x="201.701" y="85.0918" width="67.3599" height="2.57661" fill="#C4C4C4"/>
<rect x="201.701" y="90.2441" width="67.3599" height="2.57661" fill="#C4C4C4"/>
<rect x="201.701" y="95.3965" width="67.3599" height="2.57661" fill="#C4C4C4"/>
<g filter="url(#filter5_d_7645_28906)">
<path d="M196.184 195.532C196.184 194.98 196.631 194.532 197.184 194.532H271.378C271.93 194.532 272.378 194.98 272.378 195.532V250.586C272.378 251.138 271.93 251.586 271.378 251.586H197.184C196.631 251.586 196.184 251.138 196.184 250.586V195.532Z" fill="white"/>
</g>
<rect x="200.229" y="200.791" width="22.4533" height="22.4533" fill="#7BC3F4"/>
<circle cx="257.839" cy="212.018" r="11.2267" fill="#D4EEFF"/>
<path fill-rule="evenodd" clip-rule="evenodd" d="M234.473 220.866C234.473 221.873 235.794 222.249 236.324 221.391L240.744 214.235C240.943 213.913 240.943 213.506 240.744 213.184L236.324 206.027C235.794 205.17 234.473 205.545 234.473 206.553V208.476C234.473 209.028 234.025 209.476 233.473 209.476H229.206C228.654 209.476 228.206 209.924 228.206 210.476V216.942C228.206 217.494 228.654 217.942 229.206 217.942H233.473C234.025 217.942 234.473 218.39 234.473 218.942V220.866Z" fill="#A1E0E9"/>
<rect x="201.701" y="234.287" width="67.3599" height="2.57661" fill="#C4C4C4"/>
<rect x="201.701" y="239.439" width="67.3599" height="2.57661" fill="#C4C4C4"/>
<rect x="201.701" y="244.592" width="67.3599" height="2.57661" fill="#C4C4C4"/>
<g filter="url(#filter6_d_7645_28906)">
<path d="M279.436 46.3369C279.436 45.7846 279.883 45.3369 280.436 45.3369H354.63C355.182 45.3369 355.63 45.7846 355.63 46.3369V101.39C355.63 101.943 355.182 102.39 354.63 102.39H280.436C279.883 102.39 279.436 101.943 279.436 101.39V46.3369Z" fill="white"/>
</g>
<rect x="283.481" y="51.5957" width="22.4533" height="22.4533" fill="#7BC3F4"/>
<circle cx="341.09" cy="62.8224" r="11.2267" fill="#D4EEFF"/>
<path fill-rule="evenodd" clip-rule="evenodd" d="M317.726 71.6697C317.726 72.6772 319.047 73.0524 319.576 72.1952L323.997 65.0385C324.195 64.7164 324.195 64.3096 323.997 63.9875L319.576 56.8308C319.047 55.9736 317.726 56.3488 317.726 57.3563V59.2798C317.726 59.8321 317.278 60.2798 316.726 60.2798H312.458C311.906 60.2798 311.458 60.7275 311.458 61.2798V67.7458C311.458 68.2981 311.906 68.7458 312.458 68.7458H316.726C317.278 68.7458 317.726 69.1935 317.726 69.7458V71.6697Z" fill="#A1E0E9"/>
<rect x="284.954" y="85.0898" width="67.3599" height="2.57661" fill="#C4C4C4"/>
<rect x="284.954" y="90.2441" width="67.3599" height="2.57661" fill="#C4C4C4"/>
<rect x="284.954" y="95.3965" width="67.3599" height="2.57661" fill="#C4C4C4"/>
<g filter="url(#filter7_d_7645_28906)">
<path d="M279.436 195.532C279.436 194.98 279.883 194.532 280.436 194.532H354.63C355.182 194.532 355.63 194.98 355.63 195.532V250.586C355.63 251.138 355.182 251.586 354.63 251.586H280.436C279.883 251.586 279.436 251.138 279.436 250.586V195.532Z" fill="white"/>
</g>
<rect x="283.481" y="200.791" width="22.4533" height="22.4533" fill="#7BC3F4"/>
<circle cx="341.09" cy="212.018" r="11.2267" fill="#D4EEFF"/>
<path fill-rule="evenodd" clip-rule="evenodd" d="M317.726 220.866C317.726 221.873 319.047 222.249 319.576 221.391L323.997 214.235C324.195 213.913 324.195 213.506 323.997 213.184L319.576 206.027C319.047 205.17 317.726 205.545 317.726 206.553V208.476C317.726 209.028 317.278 209.476 316.726 209.476H312.458C311.906 209.476 311.458 209.924 311.458 210.476V216.942C311.458 217.494 311.906 217.942 312.458 217.942H316.726C317.278 217.942 317.726 218.39 317.726 218.942V220.866Z" fill="#A1E0E9"/>
<rect x="284.954" y="234.287" width="67.3599" height="2.57661" fill="#C4C4C4"/>
<rect x="284.954" y="239.439" width="67.3599" height="2.57661" fill="#C4C4C4"/>
<rect x="284.954" y="244.592" width="67.3599" height="2.57661" fill="#C4C4C4"/>
<path d="M11.1291 36.0629C10.7752 36.0619 10.4274 35.9722 10.1195 35.8025C9.80118 35.6285 9.53615 35.3754 9.35149 35.0692C9.16684 34.7629 9.06921 34.4144 9.06858 34.0594V4.66814C9.04072 3.46668 9.50094 2.30295 10.3495 1.42914C11.198 0.555336 12.3666 0.041862 13.6018 0H33.3833C34.6185 0.041862 35.7871 0.555336 36.6356 1.42914C37.4842 2.30295 37.9444 3.46668 37.9165 4.66814V34.0594C37.9144 34.4091 37.8181 34.7521 37.6374 35.0543C37.4566 35.3566 37.1977 35.6076 36.8862 35.7824C36.573 35.9583 36.2177 36.0508 35.856 36.0508C35.4943 36.0508 35.1389 35.9583 34.8257 35.7824L23.1423 29.3512L12.1594 35.7624C11.8494 35.9495 11.4939 36.0532 11.1291 36.0629V36.0629Z" fill="#FFE600"/>
<path d="M61.0419 7.85553V26.6082H57.2939V7.85553H61.0419ZM65.7043 7.85553V10.9853H52.7217V7.85553H65.7043Z" fill="#262C35"/>
<path d="M64.2525 20.1169V19.1767C64.2525 18.0862 64.3813 17.1203 64.6389 16.2788C64.9051 15.4373 65.2829 14.7332 65.7723 14.1665C66.2618 13.5912 66.8499 13.1576 67.5368 12.8657C68.2323 12.5652 69.0094 12.4149 69.8681 12.4149C70.7353 12.4149 71.5124 12.5652 72.1993 12.8657C72.8948 13.1576 73.4872 13.5912 73.9767 14.1665C74.4747 14.7332 74.8568 15.4373 75.1229 16.2788C75.3891 17.1203 75.5222 18.0862 75.5222 19.1767V20.1169C75.5222 21.1988 75.3891 22.1605 75.1229 23.002C74.8568 23.8434 74.4747 24.5518 73.9767 25.1271C73.4872 25.7024 72.8991 26.136 72.2121 26.4279C71.5252 26.7199 70.7525 26.8658 69.8938 26.8658C69.0352 26.8658 68.2581 26.7199 67.5626 26.4279C66.8757 26.136 66.2832 25.7024 65.7852 25.1271C65.2872 24.5518 64.9051 23.8434 64.6389 23.002C64.3813 22.1605 64.2525 21.1988 64.2525 20.1169ZM67.8588 19.1767V20.1169C67.8588 20.7609 67.9018 21.319 67.9876 21.7913C68.0821 22.2635 68.2152 22.6542 68.3869 22.9633C68.5672 23.2724 68.7819 23.5 69.0309 23.6459C69.2799 23.7919 69.5675 23.8649 69.8938 23.8649C70.2201 23.8649 70.512 23.7919 70.7696 23.6459C71.0272 23.5 71.2376 23.2724 71.4007 22.9633C71.5725 22.6542 71.697 22.2635 71.7742 21.7913C71.8601 21.319 71.903 20.7609 71.903 20.1169V19.1767C71.903 18.5499 71.8558 18.0004 71.7614 17.5281C71.6669 17.0473 71.5338 16.6566 71.3621 16.3561C71.1904 16.047 70.9757 15.8151 70.7181 15.6606C70.4691 15.4974 70.1858 15.4159 69.8681 15.4159C69.5504 15.4159 69.267 15.4974 69.018 15.6606C68.7776 15.8151 68.5672 16.047 68.3869 16.3561C68.2152 16.6566 68.0821 17.0473 67.9876 17.5281C67.9018 18.0004 67.8588 18.5499 67.8588 19.1767Z" fill="#262C35"/>
<path d="M81.0125 15.3515V31.9662H77.4191V12.6725H80.7421L81.0125 15.3515ZM88.2509 19.1638V20.0912C88.2509 21.1816 88.1564 22.1476 87.9675 22.9891C87.7786 23.822 87.4953 24.5303 87.1175 25.1142C86.7482 25.6895 86.2846 26.1274 85.7265 26.4279C85.1683 26.7199 84.5158 26.8658 83.7688 26.8658C83.0733 26.8658 82.4722 26.7027 81.9656 26.3764C81.4676 26.0415 81.0469 25.5822 80.7034 24.9983C80.36 24.4144 80.0852 23.7318 79.8791 22.9504C79.673 22.1691 79.5142 21.3319 79.4026 20.4389V18.9964C79.5056 18.0433 79.6559 17.1675 79.8534 16.369C80.0508 15.5618 80.3213 14.862 80.6648 14.2696C81.0168 13.6771 81.4418 13.222 81.9399 12.9043C82.4465 12.5781 83.0475 12.4149 83.743 12.4149C84.4986 12.4149 85.1555 12.5523 85.7136 12.8271C86.2803 13.1018 86.7482 13.5183 87.1175 14.0764C87.4953 14.6259 87.7786 15.3257 87.9675 16.1758C88.1564 17.0258 88.2509 18.0218 88.2509 19.1638ZM84.6446 20.0912V19.1638C84.6446 18.4941 84.6059 17.9231 84.5287 17.4508C84.46 16.9786 84.3483 16.5922 84.1938 16.2917C84.0392 15.9912 83.8375 15.7722 83.5884 15.6348C83.3394 15.4974 83.0346 15.4287 82.674 15.4287C82.322 15.4287 82.0128 15.4974 81.7467 15.6348C81.4891 15.7722 81.2787 15.974 81.1156 16.2402C80.9524 16.4977 80.8279 16.8154 80.7421 17.1932C80.6562 17.5625 80.609 17.9832 80.6004 18.4555V20.9799C80.6176 21.538 80.6905 22.0317 80.8193 22.461C80.9567 22.8903 81.1757 23.2338 81.4762 23.4914C81.7767 23.7404 82.1846 23.8649 82.6998 23.8649C83.069 23.8649 83.3738 23.7876 83.6142 23.6331C83.8632 23.4785 84.065 23.2467 84.2196 22.9376C84.3741 22.6284 84.4814 22.2378 84.5415 21.7655C84.6102 21.2933 84.6446 20.7351 84.6446 20.0912Z" fill="#262C35"/>
<path d="M93.8571 12.6725V26.6082H90.2379V12.6725H93.8571ZM90.0705 9.06621C90.0705 8.5081 90.2465 8.04872 90.5986 7.68809C90.9592 7.31888 91.44 7.13427 92.0411 7.13427C92.6507 7.13427 93.1316 7.31888 93.4836 7.68809C93.8356 8.04872 94.0117 8.5081 94.0117 9.06621C94.0117 9.61574 93.8314 10.0751 93.4707 10.4443C93.1187 10.805 92.6464 10.9853 92.054 10.9853C91.4443 10.9853 90.9592 10.805 90.5986 10.4443C90.2465 10.0751 90.0705 9.61574 90.0705 9.06621Z" fill="#262C35"/>
<path d="M101.357 23.8649C101.692 23.8649 101.979 23.7962 102.22 23.6588C102.469 23.5214 102.657 23.2982 102.786 22.9891C102.915 22.68 102.984 22.2807 102.992 21.7913H106.38C106.38 22.8388 106.156 23.7447 105.71 24.5089C105.272 25.2645 104.68 25.8483 103.933 26.2605C103.194 26.6641 102.357 26.8658 101.421 26.8658C100.485 26.8658 99.6694 26.7156 98.9739 26.4151C98.2784 26.1145 97.7031 25.6766 97.2481 25.1013C96.8016 24.526 96.4624 23.8262 96.2306 23.002C96.0073 22.1691 95.8957 21.216 95.8957 20.1427V19.1252C95.8957 18.0691 96.0073 17.1246 96.2306 16.2917C96.4624 15.4588 96.8016 14.7547 97.2481 14.1794C97.7031 13.6041 98.2741 13.1662 98.961 12.8657C99.6565 12.5652 100.472 12.4149 101.408 12.4149C102.413 12.4149 103.284 12.6253 104.023 13.046C104.761 13.4582 105.336 14.0678 105.749 14.8749C106.169 15.682 106.38 16.6781 106.38 17.863H102.992C102.984 17.3306 102.919 16.8884 102.799 16.5364C102.688 16.1758 102.512 15.901 102.271 15.7121C102.039 15.5146 101.73 15.4159 101.344 15.4159C100.94 15.4159 100.614 15.5017 100.365 15.6735C100.125 15.8366 99.9399 16.077 99.8111 16.3947C99.6909 16.7038 99.6093 17.0902 99.5664 17.5539C99.5235 18.0175 99.502 18.5413 99.502 19.1252V20.1427C99.502 20.7695 99.5192 21.3147 99.5535 21.7784C99.5964 22.2335 99.678 22.6199 99.7982 22.9376C99.927 23.2467 100.112 23.4785 100.352 23.6331C100.601 23.7876 100.936 23.8649 101.357 23.8649Z" fill="#262C35"/>
<path d="M114.24 22.8474C114.24 22.607 114.158 22.3923 113.995 22.2034C113.832 22.0145 113.574 21.8213 113.222 21.6238C112.87 21.4178 112.402 21.1902 111.819 20.9412C111.183 20.6836 110.621 20.4174 110.131 20.1427C109.642 19.8679 109.225 19.5631 108.882 19.2282C108.547 18.8934 108.294 18.5113 108.122 18.0819C107.95 17.6526 107.864 17.1632 107.864 16.6137C107.864 16.0212 107.972 15.476 108.186 14.978C108.41 14.4714 108.727 14.0292 109.14 13.6514C109.552 13.265 110.054 12.9644 110.646 12.7498C111.248 12.5265 111.922 12.4149 112.669 12.4149C113.716 12.4149 114.613 12.5995 115.36 12.9687C116.116 13.3294 116.696 13.836 117.099 14.4885C117.503 15.1411 117.704 15.901 117.704 16.7682H114.098C114.098 16.4591 114.051 16.1843 113.957 15.9439C113.862 15.6949 113.708 15.5017 113.493 15.3643C113.287 15.227 113.008 15.1583 112.656 15.1583C112.398 15.1583 112.166 15.2141 111.96 15.3257C111.763 15.4373 111.604 15.5876 111.484 15.7765C111.372 15.9568 111.316 16.1715 111.316 16.4205C111.316 16.6094 111.355 16.7768 111.432 16.9228C111.518 17.0687 111.651 17.2104 111.831 17.3478C112.012 17.4852 112.252 17.6312 112.553 17.7857C112.862 17.9317 113.24 18.0948 113.686 18.2751C114.613 18.6186 115.373 18.9878 115.966 19.3828C116.567 19.7778 117.013 20.2414 117.305 20.7738C117.597 21.2976 117.743 21.9458 117.743 22.7186C117.743 23.3368 117.623 23.8992 117.382 24.4058C117.151 24.9124 116.811 25.3503 116.365 25.7196C115.919 26.0888 115.382 26.3721 114.755 26.5696C114.137 26.7671 113.446 26.8658 112.681 26.8658C111.557 26.8658 110.608 26.6426 109.835 26.1961C109.062 25.7496 108.478 25.1786 108.083 24.4831C107.688 23.779 107.491 23.0492 107.491 22.2936H110.917C110.934 22.7572 111.02 23.1222 111.175 23.3883C111.338 23.6459 111.557 23.8262 111.831 23.9293C112.106 24.0323 112.411 24.0838 112.746 24.0838C113.081 24.0838 113.355 24.0409 113.57 23.955C113.793 23.8606 113.961 23.7189 114.072 23.53C114.184 23.3325 114.24 23.105 114.24 22.8474Z" fill="#262C35"/>
<path d="M129.793 26.6082H126.174V11.4618C126.174 10.3885 126.358 9.49124 126.727 8.76998C127.097 8.04872 127.616 7.49919 128.286 7.12139C128.964 6.74359 129.767 6.55469 130.694 6.55469C130.995 6.55469 131.278 6.58045 131.544 6.63197C131.819 6.6749 132.085 6.735 132.343 6.81228L132.304 9.68443C132.193 9.65009 132.06 9.62433 131.905 9.60716C131.75 9.58998 131.587 9.5814 131.416 9.5814C131.072 9.5814 130.776 9.65438 130.527 9.80035C130.286 9.94632 130.102 10.1567 129.973 10.4315C129.853 10.7062 129.793 11.0497 129.793 11.4618V26.6082ZM131.969 12.6725V15.3901H124.473V12.6725H131.969Z" fill="#262C35"/>
<path d="M133.171 20.1169V19.1767C133.171 18.0862 133.3 17.1203 133.557 16.2788C133.823 15.4373 134.201 14.7332 134.691 14.1665C135.18 13.5912 135.768 13.1576 136.455 12.8657C137.151 12.5652 137.928 12.4149 138.786 12.4149C139.654 12.4149 140.431 12.5652 141.118 12.8657C141.813 13.1576 142.406 13.5912 142.895 14.1665C143.393 14.7332 143.775 15.4373 144.041 16.2788C144.307 17.1203 144.441 18.0862 144.441 19.1767V20.1169C144.441 21.1988 144.307 22.1605 144.041 23.002C143.775 23.8434 143.393 24.5518 142.895 25.1271C142.406 25.7024 141.817 26.136 141.13 26.4279C140.444 26.7199 139.671 26.8658 138.812 26.8658C137.953 26.8658 137.176 26.7199 136.481 26.4279C135.794 26.136 135.202 25.7024 134.704 25.1271C134.206 24.5518 133.823 23.8434 133.557 23.002C133.3 22.1605 133.171 21.1988 133.171 20.1169ZM136.777 19.1767V20.1169C136.777 20.7609 136.82 21.319 136.906 21.7913C137 22.2635 137.133 22.6542 137.305 22.9633C137.486 23.2724 137.7 23.5 137.949 23.6459C138.198 23.7919 138.486 23.8649 138.812 23.8649C139.138 23.8649 139.43 23.7919 139.688 23.6459C139.946 23.5 140.156 23.2724 140.319 22.9633C140.491 22.6542 140.615 22.2635 140.693 21.7913C140.778 21.319 140.821 20.7609 140.821 20.1169V19.1767C140.821 18.5499 140.774 18.0004 140.68 17.5281C140.585 17.0473 140.452 16.6566 140.28 16.3561C140.109 16.047 139.894 15.8151 139.636 15.6606C139.387 15.4974 139.104 15.4159 138.786 15.4159C138.469 15.4159 138.185 15.4974 137.936 15.6606C137.696 15.8151 137.486 16.047 137.305 16.3561C137.133 16.6566 137 17.0473 136.906 17.5281C136.82 18.0004 136.777 18.5499 136.777 19.1767Z" fill="#262C35"/>
<path d="M149.931 15.7765V26.6082H146.325V12.6725H149.725L149.931 15.7765ZM153.215 12.5695L153.164 16.1629C153 16.1285 152.803 16.1028 152.571 16.0856C152.348 16.0684 152.15 16.0598 151.979 16.0598C151.575 16.0598 151.232 16.1242 150.948 16.253C150.665 16.3732 150.429 16.5579 150.24 16.8069C150.06 17.0473 149.922 17.3478 149.828 17.7084C149.733 18.0691 149.678 18.4769 149.66 18.932L148.978 18.6744C148.978 17.7642 149.046 16.9314 149.184 16.1758C149.33 15.4116 149.544 14.7504 149.828 14.1923C150.111 13.6256 150.45 13.1877 150.845 12.8786C151.249 12.5695 151.704 12.4149 152.211 12.4149C152.382 12.4149 152.563 12.4321 152.751 12.4664C152.949 12.4922 153.104 12.5265 153.215 12.5695Z" fill="#262C35"/>
<path d="M160.538 7.85553H166.553C167.806 7.85553 168.875 8.07019 169.76 8.49951C170.644 8.92883 171.322 9.56422 171.795 10.4057C172.267 11.2472 172.503 12.2861 172.503 13.5226C172.503 14.5358 172.366 15.403 172.091 16.1242C171.816 16.8369 171.426 17.4337 170.919 17.9145C170.412 18.3868 169.807 18.7646 169.103 19.0479L167.957 19.7305H163.075L163.062 16.6008H166.45C166.965 16.6008 167.39 16.4892 167.725 16.2659C168.068 16.0341 168.322 15.7121 168.485 15.2999C168.656 14.8792 168.742 14.3898 168.742 13.8317C168.742 13.2392 168.665 12.7326 168.51 12.3119C168.364 11.8826 168.128 11.5563 167.802 11.333C167.484 11.1012 167.068 10.9853 166.553 10.9853H164.312V26.6082H160.538V7.85553ZM169.051 26.6082L165.613 18.2494L169.567 18.2365L173.083 26.4279V26.6082H169.051Z" fill="#262C35"/>
<path d="M180.17 26.8658C179.217 26.8658 178.371 26.7199 177.633 26.4279C176.903 26.136 176.285 25.7153 175.778 25.1657C175.272 24.6076 174.885 23.9336 174.619 23.1436C174.353 22.3537 174.22 21.4521 174.22 20.4389V19.2926C174.22 18.1592 174.349 17.1675 174.606 16.3174C174.864 15.4588 175.229 14.7375 175.701 14.1537C176.173 13.5698 176.753 13.1362 177.44 12.8528C178.135 12.5609 178.921 12.4149 179.797 12.4149C180.672 12.4149 181.441 12.5609 182.102 12.8528C182.772 13.1362 183.326 13.5655 183.764 14.1408C184.201 14.7075 184.532 15.4116 184.755 16.253C184.978 17.0945 185.09 18.0734 185.09 19.1896V20.8382H175.752V18.3009H181.548V17.9789C181.548 17.4122 181.488 16.9399 181.368 16.5621C181.248 16.1758 181.059 15.8881 180.801 15.6992C180.544 15.5103 180.2 15.4159 179.771 15.4159C179.41 15.4159 179.105 15.4888 178.856 15.6348C178.607 15.7808 178.41 16.0083 178.264 16.3174C178.118 16.6265 178.011 17.0301 177.942 17.5281C177.873 18.0175 177.839 18.6057 177.839 19.2926V20.4389C177.839 21.0829 177.895 21.6238 178.006 22.0617C178.118 22.4911 178.281 22.8431 178.496 23.1179C178.719 23.384 178.989 23.5772 179.307 23.6975C179.625 23.8091 179.994 23.8649 180.415 23.8649C181.05 23.8649 181.621 23.7533 182.128 23.53C182.643 23.2982 183.081 22.9848 183.442 22.5898L184.884 24.7793C184.635 25.1056 184.292 25.4319 183.854 25.7582C183.416 26.0845 182.892 26.3507 182.282 26.5567C181.673 26.7628 180.969 26.8658 180.17 26.8658Z" fill="#262C35"/>
<path d="M190.709 23.8262L192.95 12.6725H196.711L192.886 26.6082H190.632L190.709 23.8262ZM189.383 12.6725L191.662 23.8391L191.701 26.6082H189.434L185.609 12.6725H189.383Z" fill="#262C35"/>
<path d="M201.841 12.6725V26.6082H198.222V12.6725H201.841ZM198.054 9.06621C198.054 8.5081 198.23 8.04872 198.582 7.68809C198.943 7.31888 199.424 7.13427 200.025 7.13427C200.634 7.13427 201.115 7.31888 201.467 7.68809C201.819 8.04872 201.995 8.5081 201.995 9.06621C201.995 9.61574 201.815 10.0751 201.454 10.4443C201.102 10.805 200.63 10.9853 200.038 10.9853C199.428 10.9853 198.943 10.805 198.582 10.4443C198.23 10.0751 198.054 9.61574 198.054 9.06621Z" fill="#262C35"/>
<path d="M209.92 26.8658C208.967 26.8658 208.121 26.7199 207.383 26.4279C206.653 26.136 206.035 25.7153 205.528 25.1657C205.021 24.6076 204.635 23.9336 204.369 23.1436C204.103 22.3537 203.97 21.4521 203.97 20.4389V19.2926C203.97 18.1592 204.098 17.1675 204.356 16.3174C204.614 15.4588 204.978 14.7375 205.451 14.1537C205.923 13.5698 206.503 13.1362 207.189 12.8528C207.885 12.5609 208.671 12.4149 209.546 12.4149C210.422 12.4149 211.191 12.5609 211.852 12.8528C212.522 13.1362 213.075 13.5655 213.513 14.1408C213.951 14.7075 214.282 15.4116 214.505 16.253C214.728 17.0945 214.84 18.0734 214.84 19.1896V20.8382H205.502V18.3009H211.298V17.9789C211.298 17.4122 211.238 16.9399 211.118 16.5621C210.998 16.1758 210.809 15.8881 210.551 15.6992C210.293 15.5103 209.95 15.4159 209.521 15.4159C209.16 15.4159 208.855 15.4888 208.606 15.6348C208.357 15.7808 208.16 16.0083 208.014 16.3174C207.868 16.6265 207.76 17.0301 207.692 17.5281C207.623 18.0175 207.589 18.6057 207.589 19.2926V20.4389C207.589 21.0829 207.645 21.6238 207.756 22.0617C207.868 22.4911 208.031 22.8431 208.246 23.1179C208.469 23.384 208.739 23.5772 209.057 23.6975C209.375 23.8091 209.744 23.8649 210.165 23.8649C210.8 23.8649 211.371 23.7533 211.878 23.53C212.393 23.2982 212.831 22.9848 213.191 22.5898L214.634 24.7793C214.385 25.1056 214.041 25.4319 213.604 25.7582C213.166 26.0845 212.642 26.3507 212.032 26.5567C211.423 26.7628 210.718 26.8658 209.92 26.8658Z" fill="#262C35"/>
<path d="M219.802 22.9376L222.236 12.6725H224.503L223.949 16.8455L221.554 26.6082H219.661L219.802 22.9376ZM219.107 12.6725L220.768 22.9118L220.755 26.6082H218.54L215.642 12.6725H219.107ZM226.332 22.7444L227.942 12.6725H231.433L228.522 26.6082H226.306L226.332 22.7444ZM224.812 12.6725L227.247 22.8603L227.414 26.6082H225.521L223.125 16.8713L222.584 12.6725H224.812Z" fill="#262C35"/>
<path d="M59.8956 167.627H56.0575L56.0446 164.897H59.316C59.8312 164.897 60.252 164.811 60.5782 164.639C60.9131 164.459 61.1578 164.197 61.3124 163.853C61.4755 163.501 61.5571 163.076 61.5571 162.578C61.5571 162.003 61.4841 161.544 61.3381 161.2C61.1922 160.848 60.956 160.591 60.6298 160.427C60.3035 160.264 59.8785 160.183 59.3547 160.183H57.3455V175.806H53.5717V157.053H59.3547C60.2906 157.053 61.1278 157.156 61.8662 157.362C62.6046 157.568 63.2314 157.882 63.7466 158.302C64.2618 158.723 64.6525 159.255 64.9187 159.899C65.1934 160.543 65.3308 161.303 65.3308 162.179C65.3308 162.952 65.1763 163.665 64.8672 164.317C64.558 164.97 64.0729 165.502 63.4118 165.914C62.7592 166.326 61.9048 166.558 60.8487 166.61L59.8956 167.627ZM59.7668 175.806H54.9885L56.4954 172.689H59.7668C60.2648 172.689 60.6684 172.581 60.9775 172.367C61.2866 172.152 61.5099 171.865 61.6473 171.504C61.7846 171.135 61.8533 170.714 61.8533 170.242C61.8533 169.709 61.7889 169.246 61.6601 168.851C61.5399 168.456 61.3381 168.155 61.0548 167.949C60.7714 167.734 60.3893 167.627 59.9085 167.627H56.6628L56.6886 164.897H60.6298L61.5185 165.979C62.5231 165.944 63.3259 166.137 63.9269 166.558C64.528 166.97 64.9573 167.511 65.2149 168.181C65.4811 168.842 65.6142 169.546 65.6142 170.293C65.6142 171.495 65.3866 172.509 64.9316 173.333C64.4851 174.149 63.8282 174.767 62.961 175.187C62.0937 175.6 61.029 175.806 59.7668 175.806Z" fill="#262C35"/>
<path d="M71.4136 164.974V175.806H67.8073V161.87H71.2075L71.4136 164.974ZM74.6979 161.767L74.6464 165.36C74.4832 165.326 74.2858 165.3 74.0539 165.283C73.8307 165.266 73.6332 165.257 73.4615 165.257C73.0579 165.257 72.7144 165.322 72.4311 165.45C72.1477 165.571 71.9116 165.755 71.7227 166.004C71.5424 166.245 71.405 166.545 71.3106 166.906C71.2161 167.267 71.1603 167.674 71.1431 168.129L70.4605 167.872C70.4605 166.962 70.5292 166.129 70.6666 165.373C70.8126 164.609 71.0272 163.948 71.3106 163.39C71.5939 162.823 71.9331 162.385 72.3281 162.076C72.7316 161.767 73.1867 161.612 73.6933 161.612C73.865 161.612 74.0453 161.63 74.2342 161.664C74.4317 161.69 74.5863 161.724 74.6979 161.767Z" fill="#262C35"/>
<path d="M75.2682 169.314V168.374C75.2682 167.284 75.397 166.318 75.6546 165.476C75.9208 164.635 76.2986 163.931 76.788 163.364C77.2774 162.789 77.8656 162.355 78.5525 162.063C79.248 161.763 80.0251 161.612 80.8837 161.612C81.751 161.612 82.528 161.763 83.2149 162.063C83.9104 162.355 84.5029 162.789 84.9923 163.364C85.4903 163.931 85.8724 164.635 86.1386 165.476C86.4048 166.318 86.5379 167.284 86.5379 168.374V169.314C86.5379 170.396 86.4048 171.358 86.1386 172.199C85.8724 173.041 85.4903 173.749 84.9923 174.325C84.5029 174.9 83.9147 175.333 83.2278 175.625C82.5409 175.917 81.7681 176.063 80.9095 176.063C80.0508 176.063 79.2738 175.917 78.5783 175.625C77.8914 175.333 77.2989 174.9 76.8009 174.325C76.3029 173.749 75.9208 173.041 75.6546 172.199C75.397 171.358 75.2682 170.396 75.2682 169.314ZM78.8745 168.374V169.314C78.8745 169.958 78.9174 170.516 79.0033 170.989C79.0978 171.461 79.2308 171.852 79.4026 172.161C79.5829 172.47 79.7975 172.697 80.0466 172.843C80.2956 172.989 80.5832 173.062 80.9095 173.062C81.2358 173.062 81.5277 172.989 81.7853 172.843C82.0429 172.697 82.2533 172.47 82.4164 172.161C82.5881 171.852 82.7126 171.461 82.7899 170.989C82.8758 170.516 82.9187 169.958 82.9187 169.314V168.374C82.9187 167.747 82.8715 167.198 82.777 166.726C82.6826 166.245 82.5495 165.854 82.3778 165.554C82.206 165.244 81.9914 165.013 81.7338 164.858C81.4848 164.695 81.2014 164.613 80.8837 164.613C80.566 164.613 80.2827 164.695 80.0337 164.858C79.7933 165.013 79.5829 165.244 79.4026 165.554C79.2308 165.854 79.0978 166.245 79.0033 166.726C78.9174 167.198 78.8745 167.747 78.8745 168.374Z" fill="#262C35"/>
<path d="M91.6933 172.135L94.1276 161.87H96.3944L95.8406 166.043L93.445 175.806H91.5517L91.6933 172.135ZM90.9978 161.87L92.6593 172.109L92.6464 175.806H90.4311L87.5332 161.87H90.9978ZM98.2233 171.942L99.8333 161.87H103.324L100.413 175.806H98.1975L98.2233 171.942ZM96.7035 161.87L99.1378 172.058L99.3052 175.806H97.4119L95.0163 166.069L94.4753 161.87H96.7035Z" fill="#262C35"/>
<path d="M110.926 172.045C110.926 171.804 110.845 171.59 110.681 171.401C110.518 171.212 110.261 171.019 109.909 170.821C109.557 170.615 109.089 170.388 108.505 170.139C107.869 169.881 107.307 169.615 106.818 169.34C106.328 169.065 105.912 168.761 105.568 168.426C105.233 168.091 104.98 167.709 104.808 167.279C104.637 166.85 104.551 166.361 104.551 165.811C104.551 165.219 104.658 164.673 104.873 164.175C105.096 163.669 105.414 163.227 105.826 162.849C106.238 162.462 106.74 162.162 107.333 161.947C107.934 161.724 108.608 161.612 109.355 161.612C110.402 161.612 111.3 161.797 112.047 162.166C112.802 162.527 113.382 163.033 113.785 163.686C114.189 164.339 114.391 165.098 114.391 165.966H110.785C110.785 165.657 110.737 165.382 110.643 165.141C110.548 164.892 110.394 164.699 110.179 164.562C109.973 164.424 109.694 164.356 109.342 164.356C109.084 164.356 108.853 164.412 108.647 164.523C108.449 164.635 108.29 164.785 108.17 164.974C108.058 165.154 108.003 165.369 108.003 165.618C108.003 165.807 108.041 165.974 108.118 166.12C108.204 166.266 108.337 166.408 108.518 166.545C108.698 166.683 108.938 166.829 109.239 166.983C109.548 167.129 109.926 167.292 110.372 167.473C111.3 167.816 112.06 168.185 112.652 168.58C113.253 168.975 113.7 169.439 113.992 169.971C114.283 170.495 114.429 171.143 114.429 171.916C114.429 172.534 114.309 173.097 114.069 173.603C113.837 174.11 113.498 174.548 113.051 174.917C112.605 175.286 112.068 175.57 111.441 175.767C110.823 175.965 110.132 176.063 109.368 176.063C108.243 176.063 107.294 175.84 106.521 175.394C105.749 174.947 105.165 174.376 104.77 173.681C104.375 172.976 104.177 172.247 104.177 171.491H107.603C107.62 171.955 107.706 172.32 107.861 172.586C108.024 172.843 108.243 173.024 108.518 173.127C108.792 173.23 109.097 173.281 109.432 173.281C109.767 173.281 110.042 173.238 110.256 173.152C110.48 173.058 110.647 172.916 110.759 172.727C110.87 172.53 110.926 172.302 110.926 172.045Z" fill="#262C35"/>
<path d="M120.113 161.87V175.806H116.494V161.87H120.113ZM116.326 158.264C116.326 157.706 116.502 157.246 116.854 156.886C117.215 156.516 117.696 156.332 118.297 156.332C118.907 156.332 119.387 156.516 119.739 156.886C120.092 157.246 120.268 157.706 120.268 158.264C120.268 158.813 120.087 159.273 119.727 159.642C119.375 160.002 118.902 160.183 118.31 160.183C117.7 160.183 117.215 160.002 116.854 159.642C116.502 159.273 116.326 158.813 116.326 158.264Z" fill="#262C35"/>
<path d="M126.118 164.845V175.806H122.499V161.87H125.887L126.118 164.845ZM125.578 168.361L124.612 168.387C124.594 167.339 124.693 166.399 124.908 165.566C125.131 164.734 125.444 164.025 125.848 163.441C126.26 162.849 126.75 162.398 127.316 162.089C127.892 161.771 128.531 161.612 129.235 161.612C129.776 161.612 130.27 161.707 130.717 161.896C131.172 162.085 131.562 162.385 131.889 162.797C132.215 163.209 132.468 163.759 132.648 164.446C132.829 165.124 132.919 165.957 132.919 166.945V175.806H129.3V166.919C129.3 166.318 129.24 165.854 129.119 165.528C128.999 165.193 128.819 164.961 128.578 164.832C128.338 164.695 128.038 164.626 127.677 164.626C127.333 164.626 127.029 164.725 126.762 164.922C126.496 165.111 126.273 165.373 126.093 165.708C125.921 166.043 125.788 166.438 125.693 166.893C125.608 167.348 125.569 167.838 125.578 168.361Z" fill="#262C35"/>
<path d="M142.492 161.87H145.764V175.806C145.764 177.076 145.519 178.115 145.029 178.923C144.549 179.738 143.874 180.335 143.007 180.713C142.149 181.099 141.144 181.292 139.993 181.292C139.556 181.292 139.062 181.232 138.512 181.112C137.971 180.992 137.448 180.807 136.941 180.558C136.434 180.318 136.018 180.026 135.692 179.682L136.915 177.184C137.25 177.519 137.688 177.802 138.229 178.034C138.77 178.274 139.302 178.394 139.826 178.394C140.333 178.394 140.753 178.313 141.088 178.15C141.432 177.995 141.689 177.729 141.861 177.351C142.041 176.973 142.131 176.467 142.131 175.831V165.103L142.492 161.87ZM134.713 169.327V168.4C134.713 167.267 134.82 166.275 135.035 165.425C135.249 164.575 135.559 163.866 135.962 163.3C136.366 162.733 136.859 162.312 137.443 162.037C138.036 161.754 138.697 161.612 139.427 161.612C140.191 161.612 140.831 161.78 141.346 162.115C141.861 162.441 142.277 162.9 142.595 163.493C142.921 164.085 143.17 164.785 143.342 165.592C143.522 166.399 143.66 167.284 143.754 168.245V169.585C143.66 170.495 143.505 171.345 143.291 172.135C143.085 172.925 142.81 173.612 142.466 174.196C142.123 174.78 141.702 175.239 141.204 175.574C140.706 175.9 140.105 176.063 139.401 176.063C138.68 176.063 138.027 175.917 137.443 175.625C136.868 175.333 136.374 174.904 135.962 174.337C135.559 173.762 135.249 173.058 135.035 172.225C134.82 171.384 134.713 170.418 134.713 169.327ZM138.332 168.4V169.327C138.332 169.98 138.371 170.542 138.448 171.014C138.534 171.478 138.663 171.86 138.834 172.161C139.006 172.453 139.225 172.672 139.491 172.818C139.766 172.955 140.088 173.024 140.457 173.024C140.981 173.024 141.397 172.903 141.706 172.663C142.024 172.414 142.256 172.075 142.402 171.646C142.556 171.208 142.642 170.705 142.66 170.139V167.704C142.651 167.232 142.595 166.807 142.492 166.429C142.398 166.052 142.265 165.73 142.093 165.463C141.921 165.197 141.698 164.991 141.423 164.845C141.157 164.699 140.843 164.626 140.483 164.626C140.114 164.626 139.796 164.699 139.53 164.845C139.264 164.991 139.04 165.219 138.86 165.528C138.688 165.828 138.555 166.219 138.461 166.7C138.375 167.172 138.332 167.739 138.332 168.4Z" fill="#262C35"/>
<path d="M164.317 164.652V167.769H156.628V164.652H164.317ZM157.697 157.053V175.806H153.924V157.053H157.697ZM167.048 157.053V175.806H163.313V157.053H167.048Z" fill="#262C35"/>
<path d="M173.337 161.87V175.806H169.718V161.87H173.337ZM169.55 158.264C169.55 157.706 169.726 157.246 170.078 156.886C170.439 156.516 170.92 156.332 171.521 156.332C172.13 156.332 172.611 156.516 172.963 156.886C173.315 157.246 173.491 157.706 173.491 158.264C173.491 158.813 173.311 159.273 172.95 159.642C172.598 160.002 172.126 160.183 171.534 160.183C170.924 160.183 170.439 160.002 170.078 159.642C169.726 159.273 169.55 158.813 169.55 158.264Z" fill="#262C35"/>
<path d="M181.983 172.045C181.983 171.804 181.901 171.59 181.738 171.401C181.575 171.212 181.317 171.019 180.965 170.821C180.613 170.615 180.145 170.388 179.561 170.139C178.926 169.881 178.363 169.615 177.874 169.34C177.385 169.065 176.968 168.761 176.625 168.426C176.29 168.091 176.036 167.709 175.865 167.279C175.693 166.85 175.607 166.361 175.607 165.811C175.607 165.219 175.714 164.673 175.929 164.175C176.152 163.669 176.47 163.227 176.882 162.849C177.294 162.462 177.797 162.162 178.389 161.947C178.99 161.724 179.664 161.612 180.411 161.612C181.459 161.612 182.356 161.797 183.103 162.166C183.859 162.527 184.438 163.033 184.842 163.686C185.245 164.339 185.447 165.098 185.447 165.966H181.841C181.841 165.657 181.794 165.382 181.699 165.141C181.605 164.892 181.45 164.699 181.236 164.562C181.029 164.424 180.75 164.356 180.398 164.356C180.141 164.356 179.909 164.412 179.703 164.523C179.505 164.635 179.346 164.785 179.226 164.974C179.115 165.154 179.059 165.369 179.059 165.618C179.059 165.807 179.097 165.974 179.175 166.12C179.261 166.266 179.394 166.408 179.574 166.545C179.754 166.683 179.995 166.829 180.295 166.983C180.604 167.129 180.982 167.292 181.429 167.473C182.356 167.816 183.116 168.185 183.708 168.58C184.309 168.975 184.756 169.439 185.048 169.971C185.34 170.495 185.486 171.143 185.486 171.916C185.486 172.534 185.366 173.097 185.125 173.603C184.893 174.11 184.554 174.548 184.108 174.917C183.661 175.286 183.125 175.57 182.498 175.767C181.879 175.965 181.188 176.063 180.424 176.063C179.299 176.063 178.35 175.84 177.578 175.394C176.805 174.947 176.221 174.376 175.826 173.681C175.431 172.976 175.234 172.247 175.234 171.491H178.66C178.677 171.955 178.763 172.32 178.917 172.586C179.08 172.843 179.299 173.024 179.574 173.127C179.849 173.23 180.154 173.281 180.488 173.281C180.823 173.281 181.098 173.238 181.313 173.152C181.536 173.058 181.703 172.916 181.815 172.727C181.927 172.53 181.983 172.302 181.983 172.045Z" fill="#262C35"/>
<path d="M193.462 161.87V164.588H186.352V161.87H193.462ZM187.988 158.431H191.581V171.555C191.581 171.942 191.62 172.238 191.697 172.444C191.775 172.65 191.891 172.796 192.045 172.882C192.208 172.959 192.423 172.998 192.689 172.998C192.869 172.998 193.037 172.989 193.191 172.972C193.346 172.946 193.462 172.921 193.539 172.895V175.716C193.256 175.827 192.955 175.913 192.638 175.973C192.328 176.033 191.959 176.063 191.53 176.063C190.809 176.063 190.182 175.926 189.65 175.651C189.126 175.376 188.718 174.938 188.426 174.337C188.134 173.728 187.988 172.929 187.988 171.942V158.431Z" fill="#262C35"/>
<path d="M194.277 169.314V168.374C194.277 167.284 194.406 166.318 194.663 165.476C194.929 164.635 195.307 163.931 195.797 163.364C196.286 162.789 196.874 162.355 197.561 162.063C198.257 161.763 199.034 161.612 199.892 161.612C200.76 161.612 201.537 161.763 202.224 162.063C202.919 162.355 203.512 162.789 204.001 163.364C204.499 163.931 204.881 164.635 205.147 165.476C205.413 166.318 205.547 167.284 205.547 168.374V169.314C205.547 170.396 205.413 171.358 205.147 172.199C204.881 173.041 204.499 173.749 204.001 174.325C203.512 174.9 202.923 175.333 202.236 175.625C201.55 175.917 200.777 176.063 199.918 176.063C199.06 176.063 198.282 175.917 197.587 175.625C196.9 175.333 196.308 174.9 195.81 174.325C195.312 173.749 194.929 173.041 194.663 172.199C194.406 171.358 194.277 170.396 194.277 169.314ZM197.883 168.374V169.314C197.883 169.958 197.926 170.516 198.012 170.989C198.106 171.461 198.24 171.852 198.411 172.161C198.592 172.47 198.806 172.697 199.055 172.843C199.304 172.989 199.592 173.062 199.918 173.062C200.244 173.062 200.536 172.989 200.794 172.843C201.052 172.697 201.262 172.47 201.425 172.161C201.597 171.852 201.721 171.461 201.799 170.989C201.884 170.516 201.927 169.958 201.927 169.314V168.374C201.927 167.747 201.88 167.198 201.786 166.726C201.691 166.245 201.558 165.854 201.386 165.554C201.215 165.244 201 165.013 200.742 164.858C200.493 164.695 200.21 164.613 199.892 164.613C199.575 164.613 199.291 164.695 199.042 164.858C198.802 165.013 198.592 165.244 198.411 165.554C198.24 165.854 198.106 166.245 198.012 166.726C197.926 167.198 197.883 167.747 197.883 168.374Z" fill="#262C35"/>
<path d="M211.037 164.974V175.806H207.431V161.87H210.831L211.037 164.974ZM214.321 161.767L214.27 165.36C214.107 165.326 213.909 165.3 213.677 165.283C213.454 165.266 213.256 165.257 213.085 165.257C212.681 165.257 212.338 165.322 212.054 165.45C211.771 165.571 211.535 165.755 211.346 166.004C211.166 166.245 211.028 166.545 210.934 166.906C210.839 167.267 210.784 167.674 210.766 168.129L210.084 167.872C210.084 166.962 210.152 166.129 210.29 165.373C210.436 164.609 210.65 163.948 210.934 163.39C211.217 162.823 211.556 162.385 211.951 162.076C212.355 161.767 212.81 161.612 213.317 161.612C213.488 161.612 213.669 161.63 213.858 161.664C214.055 161.69 214.21 161.724 214.321 161.767Z" fill="#262C35"/>
<path d="M219.502 174.209L222.413 161.87H226.174L221.589 177.892C221.486 178.244 221.344 178.622 221.164 179.026C220.984 179.438 220.743 179.824 220.443 180.185C220.151 180.554 219.781 180.855 219.335 181.086C218.888 181.318 218.352 181.434 217.725 181.434C217.407 181.434 217.15 181.413 216.952 181.37C216.763 181.335 216.523 181.275 216.231 181.189V178.382C216.308 178.382 216.381 178.382 216.45 178.382C216.527 178.39 216.6 178.394 216.669 178.394C217.072 178.394 217.394 178.339 217.635 178.227C217.875 178.124 218.068 177.961 218.214 177.738C218.369 177.514 218.498 177.235 218.601 176.9L219.502 174.209ZM218.755 161.87L220.919 171.865L221.409 175.934L218.974 176.166L214.891 161.87H218.755Z" fill="#262C35"/>
<path d="M244.908 165.09V168.117H233.626V165.09H244.908Z" fill="#262C35"/>
<path d="M255.734 157.053L258.594 165.502L261.427 157.053H265.536L260.487 168.992V175.806H256.687V168.992L251.639 157.053H255.734Z" fill="#262C35"/>
<path d="M271.464 176.063C270.511 176.063 269.665 175.917 268.927 175.625C268.197 175.333 267.579 174.913 267.072 174.363C266.565 173.805 266.179 173.131 265.913 172.341C265.647 171.551 265.514 170.65 265.514 169.636V168.49C265.514 167.357 265.642 166.365 265.9 165.515C266.157 164.656 266.522 163.935 266.995 163.351C267.467 162.767 268.047 162.334 268.733 162.05C269.429 161.758 270.215 161.612 271.09 161.612C271.966 161.612 272.735 161.758 273.396 162.05C274.066 162.334 274.619 162.763 275.057 163.338C275.495 163.905 275.826 164.609 276.049 165.45C276.272 166.292 276.384 167.271 276.384 168.387V170.036H267.046V167.498H272.842V167.176C272.842 166.61 272.782 166.137 272.662 165.76C272.541 165.373 272.353 165.086 272.095 164.897C271.837 164.708 271.494 164.613 271.065 164.613C270.704 164.613 270.399 164.686 270.15 164.832C269.901 164.978 269.704 165.206 269.558 165.515C269.412 165.824 269.304 166.228 269.236 166.726C269.167 167.215 269.133 167.803 269.133 168.49V169.636C269.133 170.28 269.189 170.821 269.3 171.259C269.412 171.689 269.575 172.041 269.79 172.315C270.013 172.581 270.283 172.775 270.601 172.895C270.919 173.007 271.288 173.062 271.709 173.062C272.344 173.062 272.915 172.951 273.422 172.727C273.937 172.496 274.375 172.182 274.735 171.787L276.178 173.977C275.929 174.303 275.585 174.629 275.147 174.956C274.71 175.282 274.186 175.548 273.576 175.754C272.967 175.96 272.262 176.063 271.464 176.063Z" fill="#262C35"/>
<path d="M284.257 172.045C284.257 171.804 284.175 171.59 284.012 171.401C283.849 171.212 283.592 171.019 283.239 170.821C282.887 170.615 282.419 170.388 281.836 170.139C281.2 169.881 280.638 169.615 280.148 169.34C279.659 169.065 279.243 168.761 278.899 168.426C278.564 168.091 278.311 167.709 278.139 167.279C277.967 166.85 277.882 166.361 277.882 165.811C277.882 165.219 277.989 164.673 278.204 164.175C278.427 163.669 278.745 163.227 279.157 162.849C279.569 162.462 280.071 162.162 280.664 161.947C281.265 161.724 281.939 161.612 282.686 161.612C283.733 161.612 284.63 161.797 285.378 162.166C286.133 162.527 286.713 163.033 287.116 163.686C287.52 164.339 287.722 165.098 287.722 165.966H284.115C284.115 165.657 284.068 165.382 283.974 165.141C283.879 164.892 283.725 164.699 283.51 164.562C283.304 164.424 283.025 164.356 282.673 164.356C282.415 164.356 282.183 164.412 281.977 164.523C281.78 164.635 281.621 164.785 281.501 164.974C281.389 165.154 281.333 165.369 281.333 165.618C281.333 165.807 281.372 165.974 281.449 166.12C281.535 166.266 281.668 166.408 281.848 166.545C282.029 166.683 282.269 166.829 282.57 166.983C282.879 167.129 283.257 167.292 283.703 167.473C284.63 167.816 285.39 168.185 285.983 168.58C286.584 168.975 287.03 169.439 287.322 169.971C287.614 170.495 287.76 171.143 287.76 171.916C287.76 172.534 287.64 173.097 287.4 173.603C287.168 174.11 286.829 174.548 286.382 174.917C285.936 175.286 285.399 175.57 284.772 175.767C284.154 175.965 283.463 176.063 282.699 176.063C281.574 176.063 280.625 175.84 279.852 175.394C279.079 174.947 278.495 174.376 278.101 173.681C277.706 172.976 277.508 172.247 277.508 171.491H280.934C280.951 171.955 281.037 172.32 281.192 172.586C281.355 172.843 281.574 173.024 281.848 173.127C282.123 173.23 282.428 173.281 282.763 173.281C283.098 173.281 283.373 173.238 283.587 173.152C283.81 173.058 283.978 172.916 284.09 172.727C284.201 172.53 284.257 172.302 284.257 172.045Z" fill="#262C35"/>
<path d="M295.736 161.87V164.588H288.627V161.87H295.736ZM290.262 158.431H293.856V171.555C293.856 171.942 293.895 172.238 293.972 172.444C294.049 172.65 294.165 172.796 294.32 172.882C294.483 172.959 294.697 172.998 294.964 172.998C295.144 172.998 295.311 172.989 295.466 172.972C295.62 172.946 295.736 172.921 295.814 172.895V175.716C295.53 175.827 295.23 175.913 294.912 175.973C294.603 176.033 294.234 176.063 293.804 176.063C293.083 176.063 292.456 175.926 291.924 175.651C291.4 175.376 290.992 174.938 290.7 174.337C290.408 173.728 290.262 172.929 290.262 171.942V158.431Z" fill="#262C35"/>
<path d="M302.965 176.063C302.012 176.063 301.167 175.917 300.428 175.625C299.698 175.333 299.08 174.913 298.573 174.363C298.067 173.805 297.68 173.131 297.414 172.341C297.148 171.551 297.015 170.65 297.015 169.636V168.49C297.015 167.357 297.144 166.365 297.401 165.515C297.659 164.656 298.024 163.935 298.496 163.351C298.968 162.767 299.548 162.334 300.235 162.05C300.93 161.758 301.716 161.612 302.592 161.612C303.468 161.612 304.236 161.758 304.897 162.05C305.567 162.334 306.121 162.763 306.559 163.338C306.997 163.905 307.327 164.609 307.551 165.45C307.774 166.292 307.885 167.271 307.885 168.387V170.036H298.548V167.498H304.343V167.176C304.343 166.61 304.283 166.137 304.163 165.76C304.043 165.373 303.854 165.086 303.596 164.897C303.339 164.708 302.995 164.613 302.566 164.613C302.205 164.613 301.901 164.686 301.652 164.832C301.403 164.978 301.205 165.206 301.059 165.515C300.913 165.824 300.806 166.228 300.737 166.726C300.669 167.215 300.634 167.803 300.634 168.49V169.636C300.634 170.28 300.69 170.821 300.802 171.259C300.913 171.689 301.076 172.041 301.291 172.315C301.514 172.581 301.785 172.775 302.102 172.895C302.42 173.007 302.789 173.062 303.21 173.062C303.845 173.062 304.416 172.951 304.923 172.727C305.438 172.496 305.876 172.182 306.237 171.787L307.679 173.977C307.43 174.303 307.087 174.629 306.649 174.956C306.211 175.282 305.687 175.548 305.078 175.754C304.468 175.96 303.764 176.063 302.965 176.063Z" fill="#262C35"/>
<path d="M313.183 164.974V175.806H309.576V161.87H312.976L313.183 164.974ZM316.467 161.767L316.415 165.36C316.252 165.326 316.055 165.3 315.823 165.283C315.6 165.266 315.402 165.257 315.23 165.257C314.827 165.257 314.483 165.322 314.2 165.45C313.917 165.571 313.681 165.755 313.492 166.004C313.311 166.245 313.174 166.545 313.079 166.906C312.985 167.267 312.929 167.674 312.912 168.129L312.229 167.872C312.229 166.962 312.298 166.129 312.436 165.373C312.581 164.609 312.796 163.948 313.079 163.39C313.363 162.823 313.702 162.385 314.097 162.076C314.501 161.767 314.956 161.612 315.462 161.612C315.634 161.612 315.814 161.63 316.003 161.664C316.201 161.69 316.355 161.724 316.467 161.767Z" fill="#262C35"/>
<path d="M324.404 172.727V156.023H328.023V175.806L324.752 175.819L324.404 172.727ZM317.179 169.327V168.4C317.179 167.267 317.273 166.275 317.462 165.425C317.66 164.575 317.952 163.866 318.338 163.3C318.724 162.733 319.197 162.312 319.755 162.037C320.321 161.754 320.97 161.612 321.7 161.612C322.361 161.612 322.94 161.78 323.438 162.115C323.945 162.441 324.374 162.9 324.726 163.493C325.078 164.085 325.362 164.785 325.576 165.592C325.791 166.399 325.941 167.284 326.027 168.245V169.585C325.924 170.495 325.765 171.345 325.551 172.135C325.344 172.925 325.061 173.612 324.701 174.196C324.348 174.78 323.923 175.239 323.425 175.574C322.927 175.9 322.348 176.063 321.687 176.063C320.957 176.063 320.309 175.917 319.742 175.625C319.184 175.333 318.711 174.904 318.325 174.337C317.947 173.762 317.66 173.058 317.462 172.225C317.273 171.384 317.179 170.418 317.179 169.327ZM320.785 168.4V169.327C320.785 169.98 320.815 170.542 320.875 171.014C320.944 171.478 321.051 171.86 321.197 172.161C321.352 172.453 321.554 172.672 321.803 172.818C322.052 172.955 322.361 173.024 322.73 173.024C323.211 173.024 323.601 172.903 323.902 172.663C324.202 172.414 324.426 172.075 324.572 171.646C324.726 171.208 324.812 170.705 324.829 170.139V167.704C324.812 167.232 324.756 166.807 324.662 166.429C324.567 166.052 324.434 165.73 324.263 165.463C324.091 165.197 323.876 164.991 323.619 164.845C323.37 164.699 323.078 164.626 322.743 164.626C322.382 164.626 322.073 164.699 321.815 164.845C321.566 164.991 321.369 165.219 321.223 165.528C321.077 165.828 320.965 166.219 320.888 166.7C320.819 167.172 320.785 167.739 320.785 168.4Z" fill="#262C35"/>
<path d="M336.489 172.599V166.159C336.489 165.738 336.437 165.403 336.334 165.154C336.24 164.905 336.094 164.725 335.896 164.613C335.708 164.493 335.476 164.433 335.201 164.433C334.892 164.433 334.634 164.497 334.428 164.626C334.222 164.755 334.068 164.94 333.965 165.18C333.87 165.42 333.823 165.708 333.823 166.043H330.204C330.204 165.442 330.32 164.875 330.551 164.343C330.783 163.802 331.122 163.33 331.569 162.926C332.024 162.514 332.565 162.192 333.192 161.96C333.819 161.728 334.523 161.612 335.304 161.612C336.231 161.612 337.056 161.771 337.777 162.089C338.498 162.398 339.069 162.892 339.49 163.57C339.911 164.248 340.121 165.128 340.121 166.21V172.418C340.121 173.2 340.16 173.835 340.237 174.325C340.323 174.814 340.447 175.235 340.61 175.587V175.806H336.978C336.815 175.419 336.691 174.938 336.605 174.363C336.528 173.779 336.489 173.191 336.489 172.599ZM336.927 167.292L336.94 169.456H335.613C335.27 169.456 334.969 169.512 334.712 169.623C334.463 169.735 334.252 169.894 334.08 170.1C333.909 170.298 333.78 170.529 333.694 170.796C333.617 171.062 333.578 171.345 333.578 171.646C333.578 171.98 333.625 172.264 333.72 172.496C333.814 172.727 333.956 172.903 334.145 173.024C334.334 173.144 334.557 173.204 334.815 173.204C335.21 173.204 335.553 173.122 335.845 172.959C336.137 172.796 336.352 172.599 336.489 172.367C336.635 172.135 336.682 171.92 336.631 171.723L337.455 173.127C337.352 173.444 337.21 173.775 337.03 174.118C336.858 174.462 336.639 174.78 336.373 175.072C336.107 175.363 335.776 175.604 335.381 175.793C334.995 175.973 334.536 176.063 334.003 176.063C333.256 176.063 332.574 175.892 331.955 175.548C331.337 175.205 330.848 174.724 330.487 174.106C330.135 173.487 329.959 172.753 329.959 171.903C329.959 171.199 330.071 170.564 330.294 169.997C330.526 169.422 330.869 168.937 331.324 168.542C331.779 168.138 332.355 167.829 333.05 167.614C333.746 167.4 334.561 167.292 335.497 167.292H336.927Z" fill="#262C35"/>
<path d="M345.689 174.209L348.599 161.87H352.36L347.775 177.892C347.672 178.244 347.53 178.622 347.35 179.026C347.17 179.438 346.929 179.824 346.629 180.185C346.337 180.554 345.968 180.855 345.521 181.086C345.075 181.318 344.538 181.434 343.911 181.434C343.594 181.434 343.336 181.413 343.138 181.37C342.95 181.335 342.709 181.275 342.417 181.189V178.382C342.494 178.382 342.567 178.382 342.636 178.382C342.713 178.39 342.786 178.394 342.855 178.394C343.259 178.394 343.581 178.339 343.821 178.227C344.061 178.124 344.255 177.961 344.401 177.738C344.555 177.514 344.684 177.235 344.787 176.9L345.689 174.209ZM344.942 161.87L347.105 171.865L347.595 175.934L345.161 176.166L341.078 161.87H344.942Z" fill="#262C35"/>
<defs>
<filter id="filter0_d_7645_28906" x="28.6753" y="44.3369" width="78.1938" height="59.0537" filterUnits="userSpaceOnUse" color-interpolation-filters="sRGB">
<feFlood flood-opacity="0" result="BackgroundImageFix"/>
<feColorMatrix in="SourceAlpha" type="matrix" values="0 0 0 0 0 0 0 0 0 0 0 0 0 0 0 0 0 0 127 0" result="hardAlpha"/>
<feOffset/>
<feGaussianBlur stdDeviation="0.5"/>
<feComposite in2="hardAlpha" operator="out"/>
<feColorMatrix type="matrix" values="0 0 0 0 0 0 0 0 0 0.603922 0 0 0 0 0.976471 0 0 0 1 0"/>
<feBlend mode="normal" in2="BackgroundImageFix" result="effect1_dropShadow_7645_28906"/>
<feBlend mode="normal" in="SourceGraphic" in2="effect1_dropShadow_7645_28906" result="shape"/>
</filter>
<filter id="filter1_d_7645_28906" x="28.6753" y="193.532" width="78.1938" height="59.0537" filterUnits="userSpaceOnUse" color-interpolation-filters="sRGB">
<feFlood flood-opacity="0" result="BackgroundImageFix"/>
<feColorMatrix in="SourceAlpha" type="matrix" values="0 0 0 0 0 0 0 0 0 0 0 0 0 0 0 0 0 0 127 0" result="hardAlpha"/>
<feOffset/>
<feGaussianBlur stdDeviation="0.5"/>
<feComposite in2="hardAlpha" operator="out"/>
<feColorMatrix type="matrix" values="0 0 0 0 0 0 0 0 0 0.603922 0 0 0 0 0.976471 0 0 0 1 0"/>
<feBlend mode="normal" in2="BackgroundImageFix" result="effect1_dropShadow_7645_28906"/>
<feBlend mode="normal" in="SourceGraphic" in2="effect1_dropShadow_7645_28906" result="shape"/>
</filter>
<filter id="filter2_d_7645_28906" x="111.929" y="44.3369" width="78.1938" height="59.0537" filterUnits="userSpaceOnUse" color-interpolation-filters="sRGB">
<feFlood flood-opacity="0" result="BackgroundImageFix"/>
<feColorMatrix in="SourceAlpha" type="matrix" values="0 0 0 0 0 0 0 0 0 0 0 0 0 0 0 0 0 0 127 0" result="hardAlpha"/>
<feOffset/>
<feGaussianBlur stdDeviation="0.5"/>
<feComposite in2="hardAlpha" operator="out"/>
<feColorMatrix type="matrix" values="0 0 0 0 0 0 0 0 0 0.603922 0 0 0 0 0.976471 0 0 0 1 0"/>
<feBlend mode="normal" in2="BackgroundImageFix" result="effect1_dropShadow_7645_28906"/>
<feBlend mode="normal" in="SourceGraphic" in2="effect1_dropShadow_7645_28906" result="shape"/>
</filter>
<filter id="filter3_d_7645_28906" x="111.929" y="193.532" width="78.1938" height="59.0537" filterUnits="userSpaceOnUse" color-interpolation-filters="sRGB">
<feFlood flood-opacity="0" result="BackgroundImageFix"/>
<feColorMatrix in="SourceAlpha" type="matrix" values="0 0 0 0 0 0 0 0 0 0 0 0 0 0 0 0 0 0 127 0" result="hardAlpha"/>
<feOffset/>
<feGaussianBlur stdDeviation="0.5"/>
<feComposite in2="hardAlpha" operator="out"/>
<feColorMatrix type="matrix" values="0 0 0 0 0 0 0 0 0 0.603922 0 0 0 0 0.976471 0 0 0 1 0"/>
<feBlend mode="normal" in2="BackgroundImageFix" result="effect1_dropShadow_7645_28906"/>
<feBlend mode="normal" in="SourceGraphic" in2="effect1_dropShadow_7645_28906" result="shape"/>
</filter>
<filter id="filter4_d_7645_28906" x="195.184" y="44.3369" width="78.1938" height="59.0537" filterUnits="userSpaceOnUse" color-interpolation-filters="sRGB">
<feFlood flood-opacity="0" result="BackgroundImageFix"/>
<feColorMatrix in="SourceAlpha" type="matrix" values="0 0 0 0 0 0 0 0 0 0 0 0 0 0 0 0 0 0 127 0" result="hardAlpha"/>
<feOffset/>
<feGaussianBlur stdDeviation="0.5"/>
<feComposite in2="hardAlpha" operator="out"/>
<feColorMatrix type="matrix" values="0 0 0 0 0 0 0 0 0 0.603922 0 0 0 0 0.976471 0 0 0 1 0"/>
<feBlend mode="normal" in2="BackgroundImageFix" result="effect1_dropShadow_7645_28906"/>
<feBlend mode="normal" in="SourceGraphic" in2="effect1_dropShadow_7645_28906" result="shape"/>
</filter>
<filter id="filter5_d_7645_28906" x="195.184" y="193.532" width="78.1938" height="59.0537" filterUnits="userSpaceOnUse" color-interpolation-filters="sRGB">
<feFlood flood-opacity="0" result="BackgroundImageFix"/>
<feColorMatrix in="SourceAlpha" type="matrix" values="0 0 0 0 0 0 0 0 0 0 0 0 0 0 0 0 0 0 127 0" result="hardAlpha"/>
<feOffset/>
<feGaussianBlur stdDeviation="0.5"/>
<feComposite in2="hardAlpha" operator="out"/>
<feColorMatrix type="matrix" values="0 0 0 0 0 0 0 0 0 0.603922 0 0 0 0 0.976471 0 0 0 1 0"/>
<feBlend mode="normal" in2="BackgroundImageFix" result="effect1_dropShadow_7645_28906"/>
<feBlend mode="normal" in="SourceGraphic" in2="effect1_dropShadow_7645_28906" result="shape"/>
</filter>
<filter id="filter6_d_7645_28906" x="278.436" y="44.3369" width="78.1938" height="59.0537" filterUnits="userSpaceOnUse" color-interpolation-filters="sRGB">
<feFlood flood-opacity="0" result="BackgroundImageFix"/>
<feColorMatrix in="SourceAlpha" type="matrix" values="0 0 0 0 0 0 0 0 0 0 0 0 0 0 0 0 0 0 127 0" result="hardAlpha"/>
<feOffset/>
<feGaussianBlur stdDeviation="0.5"/>
<feComposite in2="hardAlpha" operator="out"/>
<feColorMatrix type="matrix" values="0 0 0 0 0 0 0 0 0 0.603922 0 0 0 0 0.976471 0 0 0 1 0"/>
<feBlend mode="normal" in2="BackgroundImageFix" result="effect1_dropShadow_7645_28906"/>
<feBlend mode="normal" in="SourceGraphic" in2="effect1_dropShadow_7645_28906" result="shape"/>
</filter>
<filter id="filter7_d_7645_28906" x="278.436" y="193.532" width="78.1938" height="59.0537" filterUnits="userSpaceOnUse" color-interpolation-filters="sRGB">
<feFlood flood-opacity="0" result="BackgroundImageFix"/>
<feColorMatrix in="SourceAlpha" type="matrix" values="0 0 0 0 0 0 0 0 0 0 0 0 0 0 0 0 0 0 127 0" result="hardAlpha"/>
<feOffset/>
<feGaussianBlur stdDeviation="0.5"/>
<feComposite in2="hardAlpha" operator="out"/>
<feColorMatrix type="matrix" values="0 0 0 0 0 0 0 0 0 0.603922 0 0 0 0 0.976471 0 0 0 1 0"/>
<feBlend mode="normal" in2="BackgroundImageFix" result="effect1_dropShadow_7645_28906"/>
<feBlend mode="normal" in="SourceGraphic" in2="effect1_dropShadow_7645_28906" result="shape"/>
</filter>
</defs>
</svg>
