<svg width="48" height="48" viewBox="0 0 48 48" fill="none" xmlns="http://www.w3.org/2000/svg">
<rect width="48" height="48" rx="24" fill="white"/>
<path fill-rule="evenodd" clip-rule="evenodd" d="M24.0001 11.5555C17.1246 11.5555 11.5557 17.0614 11.5557 23.8591C11.5557 29.3034 15.1179 33.9018 20.0646 35.532C20.6868 35.6397 20.9201 35.2706 20.9201 34.9476C20.9201 34.6554 20.9046 33.6865 20.9046 32.6561C17.7779 33.2251 16.969 31.9025 16.7201 31.2104C16.5801 30.8567 15.9734 29.7648 15.4446 29.4726C15.009 29.2419 14.3868 28.6728 15.429 28.6574C16.409 28.6421 17.109 29.5494 17.3423 29.9186C18.4623 31.7795 20.2512 31.2566 20.9668 30.9336C21.0757 30.1339 21.4023 29.5956 21.7601 29.288C18.9912 28.9804 16.0979 27.9192 16.0979 23.2131C16.0979 21.8751 16.5801 20.7678 17.3734 19.9066C17.249 19.599 16.8134 18.3379 17.4979 16.6461C17.4979 16.6461 18.5401 16.3232 20.9201 17.9072C21.9157 17.6304 22.9734 17.492 24.0312 17.492C25.089 17.492 26.1468 17.6304 27.1423 17.9072C29.5223 16.3078 30.5646 16.6461 30.5646 16.6461C31.249 18.3379 30.8134 19.599 30.689 19.9066C31.4823 20.7678 31.9646 21.8597 31.9646 23.2131C31.9646 27.9346 29.0557 28.9804 26.2868 29.288C26.7379 29.6725 27.1268 30.4107 27.1268 31.5642C27.1268 33.2097 27.1112 34.5324 27.1112 34.9476C27.1112 35.2706 27.3446 35.6551 27.9668 35.532C32.8823 33.9018 36.4446 29.288 36.4446 23.8591C36.4446 17.0614 30.8757 11.5555 24.0001 11.5555Z" fill="#1B1F23"/>
</svg>
