<svg width="183" height="151" viewBox="0 0 183 151" fill="none" xmlns="http://www.w3.org/2000/svg">
<path d="M154.133 56.8269L154.491 26.1092C154.496 25.7029 154.412 25.3004 154.246 24.9297C154.079 24.559 153.834 24.229 153.527 23.9625C153.221 23.696 152.86 23.4995 152.469 23.3866C152.079 23.2737 151.669 23.2471 151.267 23.3087L142.93 24.5709C142.268 24.6712 141.663 25.0057 141.227 25.5136C140.79 26.0216 140.55 26.6693 140.55 27.3392V55.344L154.133 56.8269Z" fill="#FF1F00"/>
<path d="M84.3702 37.0085L158.257 38.9527C158.57 38.9636 158.876 38.8554 159.113 38.6498C159.35 38.4442 159.501 38.1565 159.534 37.8446C159.841 35.03 159.433 31.6714 159.182 29.9952C159.138 29.7001 158.988 29.431 158.761 29.2375C158.533 29.0439 158.244 28.9388 157.945 28.9415C151.052 29.0029 93.7519 29.3716 88.8077 29.9861C85.0885 30.4475 83.7185 33.5421 83.2148 35.4501C83.167 35.6302 83.1604 35.8188 83.1955 36.0018C83.2306 36.1848 83.3065 36.3576 83.4175 36.5073C83.5285 36.657 83.6718 36.7798 83.8367 36.8666C84.0016 36.9533 84.184 37.0018 84.3702 37.0085ZM85.4784 34.4155C86.1019 33.1432 87.1758 31.9817 89.0273 31.751C92.6609 31.2997 135.876 30.926 156.277 30.7356C156.614 30.7322 156.941 30.8539 157.193 31.0772C157.446 31.3005 157.606 31.6095 157.644 31.9444C157.798 33.2705 157.872 34.6047 157.864 35.9396C157.861 36.0984 157.826 36.255 157.762 36.4003C157.698 36.5456 157.606 36.6766 157.49 36.7857C157.375 36.8948 157.239 36.9798 157.09 37.0357C156.942 37.0916 156.783 37.1173 156.625 37.1112L86.0022 35.2859C85.9012 35.2827 85.8026 35.2543 85.7154 35.2032C85.6282 35.1521 85.5552 35.08 85.5031 34.9934C85.451 34.9068 85.4214 34.8086 85.4171 34.7076C85.4128 34.6066 85.4338 34.5062 85.4784 34.4155Z" fill="#A71B08"/>
<path d="M156.616 28.8207C156.616 31.321 156.572 37.3833 156.296 40.5495C156.271 40.8315 156.141 41.0938 155.931 41.2842C155.722 41.4746 155.448 41.5791 155.165 41.577C152.273 41.5589 143.957 41.4622 140.065 40.9232C139.819 40.8888 139.592 40.7742 139.418 40.5973C139.245 40.4204 139.134 40.1911 139.105 39.9451C138.841 37.8115 138.245 32.1359 138.956 29.0846C139.011 28.8435 139.143 28.627 139.333 28.4681C139.522 28.3093 139.758 28.2169 140.005 28.2052C142.65 28.0823 151.269 27.7015 155.486 27.6904C155.635 27.6902 155.782 27.7192 155.919 27.7759C156.056 27.8327 156.181 27.9159 156.286 28.0209C156.391 28.126 156.474 28.2507 156.53 28.3879C156.587 28.5252 156.616 28.6722 156.616 28.8207Z" fill="black"/>
<path d="M153.088 29.7229L152.811 38.487C152.801 38.8037 152.666 39.1034 152.435 39.3208C152.205 39.5382 151.898 39.6557 151.581 39.6475L144.065 39.4521C143.752 39.4442 143.455 39.3144 143.237 39.0904C143.019 38.8664 142.897 38.566 142.897 38.2533V30.0816C142.897 29.7742 143.015 29.4785 143.227 29.2556C143.439 29.0326 143.728 28.8996 144.035 28.8838L151.828 28.4869C151.993 28.4785 152.159 28.5045 152.314 28.5633C152.469 28.6221 152.611 28.7124 152.729 28.8286C152.847 28.9447 152.94 29.0842 153.002 29.2381C153.064 29.3921 153.093 29.5571 153.088 29.7229Z" fill="#FF1F00"/>
<path d="M90.0618 34.6328H89.3496V56.3466H90.0618V34.6328Z" fill="#FF1F00"/>
<path d="M85.8328 34.4224L85.1206 34.4248L85.1933 56.3561L85.9055 56.3537L85.8328 34.4224Z" fill="#FF1F00"/>
<path d="M88.1661 59.3096C89.5349 58.9865 90.3827 57.6149 90.0596 56.2461C89.7365 54.8772 88.365 54.0294 86.9961 54.3525C85.6272 54.6756 84.7795 56.0472 85.1026 57.416C85.4256 58.7849 86.7972 59.6326 88.1661 59.3096Z" fill="#A71B08"/>
<path d="M87.5824 58.3376C88.4175 58.3376 89.0944 57.6606 89.0944 56.8255C89.0944 55.9904 88.4175 55.3135 87.5824 55.3135C86.7473 55.3135 86.0703 55.9904 86.0703 56.8255C86.0703 57.6606 86.7473 58.3376 87.5824 58.3376Z" fill="black"/>
<path d="M89.3324 66.0887L90.2038 61.3329C90.247 61.0993 90.2382 60.859 90.1781 60.6291C90.118 60.3992 90.008 60.1853 89.856 60.0027C89.7041 59.82 89.5138 59.6731 89.2986 59.5722C89.0835 59.4713 88.8488 59.419 88.6112 59.4189H86.4443C86.1844 59.419 85.9274 59.4728 85.6893 59.5769C85.4512 59.6811 85.2372 59.8333 85.0607 60.0241C84.8843 60.215 84.7492 60.4402 84.664 60.6857C84.5788 60.9312 84.5453 61.1917 84.5656 61.4508L84.9474 66.3436C84.9735 66.6629 85.067 66.9731 85.2217 67.2537C85.3765 67.5343 85.5888 67.7789 85.8449 67.9715C86.6327 68.5689 87.7458 69.8099 87.9876 72.144C88.3714 75.84 84.901 77.0801 82.7654 76.6772C81.0992 76.3669 80.1926 74.3602 80.5492 72.8492C80.5825 72.7194 80.5859 72.5838 80.559 72.4526C80.5322 72.3213 80.4758 72.1979 80.3941 72.0917C80.3125 71.9855 80.2077 71.8993 80.0878 71.8396C79.9679 71.7799 79.836 71.7482 79.702 71.7471C79.5065 71.7467 79.3164 71.8117 79.1621 71.9318C79.0079 72.052 78.8983 72.2203 78.8508 72.41C78.4327 74.0792 77.8898 78.3826 83.1089 79.2278C89.2891 80.2291 95.285 73.642 90.0023 68.315C89.72 68.0251 89.5117 67.6713 89.3951 67.2838C89.2785 66.8963 89.257 66.4863 89.3324 66.0887Z" fill="black"/>
<path d="M87.5828 36.8081C88.9892 36.8081 90.1294 35.6679 90.1294 34.2615C90.1294 32.855 88.9892 31.7148 87.5828 31.7148C86.1763 31.7148 85.0361 32.855 85.0361 34.2615C85.0361 35.6679 86.1763 36.8081 87.5828 36.8081Z" fill="#A71B08"/>
<path d="M87.5824 35.7731C88.4175 35.7731 89.0944 35.0962 89.0944 34.2611C89.0944 33.426 88.4175 32.749 87.5824 32.749C86.7473 32.749 86.0703 33.426 86.0703 34.2611C86.0703 35.0962 86.7473 35.7731 87.5824 35.7731Z" fill="black"/>
<path d="M114.343 21.842C114.343 21.0385 114.155 20.2462 113.794 19.5282C113.434 18.8102 112.91 18.1865 112.266 17.7069C111.621 17.2273 110.873 16.9051 110.082 16.766C109.29 16.6269 108.478 16.6748 107.708 16.9059C107.784 16.3818 107.822 15.8529 107.823 15.3233C107.823 13.7196 107.47 12.1356 106.789 10.6838C106.108 9.23205 105.115 7.94825 103.881 6.92377C102.647 5.89928 101.203 5.15928 99.6508 4.7564C98.0985 4.35353 96.4766 4.29768 94.9003 4.59284C93.8258 2.82132 92.2038 1.44773 90.2795 0.679701C88.3551 -0.0883317 86.2331 -0.209066 84.2341 0.335748C82.2351 0.880561 80.4677 2.06131 79.1992 3.69952C77.9307 5.33773 77.23 7.34436 77.2029 9.41611C77.1495 9.41611 77.0971 9.40805 77.0437 9.40805C75.881 9.39561 74.7273 9.61388 73.6495 10.0502C72.5716 10.4866 71.5911 11.1323 70.7644 11.9502C69.9378 12.768 69.2816 13.7416 68.8337 14.8147C68.3859 15.8878 68.1553 17.0391 68.1553 18.2019C68.1553 19.3647 68.3859 20.5159 68.8337 21.589C69.2816 22.6621 69.9378 23.6358 70.7644 24.4536C71.5911 25.2714 72.5716 25.9172 73.6495 26.3535C74.7273 26.7899 75.881 27.0081 77.0437 26.9957H109.339L109.333 26.9886C110.674 26.9519 111.947 26.3936 112.883 25.4325C113.818 24.4714 114.342 23.1833 114.343 21.842Z" fill="#F0F0F0"/>
<path opacity="0.14" d="M92.5016 150.393C142.302 150.393 182.673 147.524 182.673 143.984C182.673 140.445 142.302 137.575 92.5016 137.575C42.7012 137.575 2.33008 140.445 2.33008 143.984C2.33008 147.524 42.7012 150.393 92.5016 150.393Z" fill="#2C2726"/>
<g opacity="0.14">
<path d="M178.848 135.13H161.145V135.238H178.848V135.13Z" fill="black"/>
<path d="M142.815 134.271H125.06V134.378H142.815V134.271Z" fill="black"/>
<path d="M106.252 134.271H101.957V134.378H106.252V134.271Z" fill="black"/>
<path d="M164.762 137.939H144.894V138.047H164.762V137.939Z" fill="black"/>
<path d="M85.4512 135.073H76.1724V135.181H85.4512V135.073Z" fill="black"/>
<path d="M72.3493 135.073H60.3506V135.181H72.3493V135.073Z" fill="black"/>
<path d="M29.3085 136.891H2.48535V136.998H29.3085V136.891Z" fill="black"/>
</g>
<path d="M32.8545 72.5782C32.8545 77.4509 40.0693 86.0961 39.7378 95.7164C39.4064 105.337 37.6637 111.929 42.3912 112.178C47.1188 112.427 68.1416 112.178 68.1416 112.178H77.4728C77.4728 112.178 79.2559 102.827 73.1603 102.143C67.0647 101.459 60.4261 102.345 59.2908 98.5985C58.0467 94.4925 58.8546 87.0289 59.042 82.4262C59.2294 77.8236 60.9701 68.4319 54.9984 64.8245C49.0268 61.2171 42.0246 62.294 37.6455 64.3269C34.156 65.9467 32.8545 68.31 32.8545 72.5782ZM66.5247 142.253C66.437 142.253 66.35 142.235 66.2689 142.202C66.1878 142.168 66.1142 142.119 66.0521 142.057C65.9901 141.995 65.9409 141.921 65.9074 141.84C65.8739 141.759 65.8567 141.672 65.8569 141.584V140.837C65.8569 140.66 65.9272 140.49 66.0525 140.365C66.1777 140.24 66.3476 140.17 66.5247 140.17C66.6125 140.169 66.6995 140.187 66.7806 140.22C66.8618 140.254 66.9355 140.303 66.9977 140.365C67.0598 140.427 67.1091 140.501 67.1427 140.582C67.1763 140.663 67.1936 140.75 67.1936 140.837V141.583C67.1938 141.671 67.1766 141.758 67.143 141.839C67.1095 141.92 67.0602 141.994 66.9981 142.057C66.936 142.119 66.8622 142.168 66.781 142.202C66.6997 142.235 66.6127 142.253 66.5247 142.253Z" fill="#A71B08"/>
<path d="M59.3086 137.185L66.5244 140.169L59.3086 138.926V137.185Z" fill="#A71B08"/>
<path d="M88.5233 94.2168H86.6909V142.475H88.5233V94.2168Z" fill="black"/>
<path d="M88.214 137.687L94.1505 137.755L92.9416 128.836L86.0049 131.232L88.214 137.687Z" fill="#E96755"/>
<path d="M88.0117 142.252L90.8132 142.239L90.9845 140.43L92.5197 142.231L99.129 142.2L94.1506 137.754L88.2142 137.686L88.0117 142.252Z" fill="#FF1F00"/>
<path d="M80.558 96.1509C79.8117 96.4187 79.1255 96.8308 78.5385 97.3637C77.9515 97.8966 77.4753 98.54 77.1369 99.257C76.7986 99.974 76.6048 100.751 76.5666 101.543C76.5284 102.334 76.6466 103.126 76.9143 103.872L84.8111 132.29L94.5412 130.779L88.624 101.484C88.5704 100.547 88.2991 99.636 87.8315 98.8227C87.3639 98.0093 86.713 97.3163 85.9306 96.7987C85.1481 96.281 84.2556 95.9531 83.3242 95.8411C82.3927 95.729 81.448 95.8357 80.565 96.1529L80.558 96.1509Z" fill="black"/>
<path d="M74.7711 92.5851C73.9262 93.101 72.9114 93.2613 71.9487 93.031C70.9859 92.8007 70.1535 92.1985 69.6335 91.3561L61.5565 78.1989C61.0406 77.354 60.8803 76.3392 61.1106 75.3765C61.3409 74.4137 61.9431 73.5813 62.7855 73.0613C63.6303 72.5455 64.6451 72.3851 65.6079 72.6155C66.5707 72.8458 67.4031 73.448 67.923 74.2903L75.9991 87.4476C76.5151 88.2923 76.6755 89.307 76.4454 90.2698C76.2153 91.2325 75.6133 92.065 74.7711 92.5851Z" fill="#FF1F00"/>
<path d="M50.0621 97.2297C50.0621 97.2297 48.9741 98.4678 48.5409 99.4751C48.1078 100.482 53.2755 99.9274 53.2755 99.9274L52.7124 95.083L50.0621 97.2297Z" fill="#FF2608"/>
<path d="M88.7157 102.093C88.7109 103.761 88.046 105.36 86.8661 106.54C85.6862 107.72 84.0873 108.385 82.4187 108.39H58.2318C56.5623 108.386 54.9621 107.722 53.7811 106.542C52.6001 105.362 51.9345 103.762 51.9297 102.093C51.9342 100.423 52.5998 98.8231 53.7808 97.6428C54.9618 96.4626 56.5621 95.7981 58.2318 95.7946H82.4187C84.0875 95.7994 85.6865 96.4645 86.8664 97.6446C88.0464 98.8247 88.7112 100.424 88.7157 102.093ZM63.7924 62.5918C63.7924 62.5918 65.3911 59.338 63.2958 59.4317C61.2005 59.5254 63.7924 62.5918 63.7924 62.5918Z" fill="black"/>
<path d="M84.4506 105.19C84.2876 106.851 83.4741 108.38 82.1878 109.442C80.9015 110.505 79.247 111.016 77.5854 110.863L53.5023 108.573C51.8417 108.41 50.313 107.597 49.25 106.311C48.187 105.025 47.6761 103.37 47.8288 101.709C47.9915 100.048 48.8049 98.5193 50.0912 97.4562C51.3776 96.3932 53.0323 95.8824 54.694 96.0354L78.7822 98.3252C80.442 98.4892 81.9696 99.3031 83.0316 100.589C84.0936 101.875 84.6037 103.529 84.4506 105.19Z" fill="black"/>
<path d="M55.4113 70.9863L48.8755 74.0648C48.8755 74.0648 50.3291 90.77 50.4792 92.6105C50.6293 94.4509 50.0662 97.2293 50.0662 97.2293H65.7237C65.7237 97.2293 65.5353 88.2163 66.587 85.6999C67.2992 83.9945 67.7888 82.9579 67.3758 81.0046C66.9628 79.0513 65.5726 76.1229 66.0662 72.7442L62.0478 71.1324L55.4113 70.9863Z" fill="#FF1F00"/>
<path d="M62.0438 63.5303V71.1299C62.0421 71.2104 62.0361 71.2908 62.0256 71.3706C61.9481 71.9912 61.5461 73.5868 59.482 73.5616C57.5952 73.5395 56.2766 72.1513 55.7155 71.427C55.6037 71.2872 55.5008 71.1405 55.4072 70.9878L56.3582 63.5333L62.0438 63.5303Z" fill="#E96755"/>
<path d="M66.1299 137.687L72.0663 137.755L73.3255 133.731L66.8411 133.237L66.1299 137.687Z" fill="#E96755"/>
<path d="M62.0428 71.1264L58.6641 66.8129L62.0428 66.1621V71.1264Z" fill="#82433A"/>
<path d="M62.1991 68.1378C60.8543 68.577 58.9897 68.0421 57.666 66.6569C56.3423 65.2718 53.3847 60.0869 57.3426 57.6692C61.3006 55.2515 63.6437 59.2528 63.7465 59.8713C63.7465 59.8713 63.7857 62.0543 63.8089 63.5915C63.818 63.9834 63.824 64.3309 63.8281 64.5928C63.8281 64.6352 63.8281 64.6744 63.8281 64.7117C63.8502 65.9135 63.544 67.7046 62.1991 68.1378Z" fill="#E96755"/>
<path d="M39.5644 92.8926C38.7591 92.3183 38.2135 91.449 38.0465 90.4742C37.8795 89.4994 38.1046 88.498 38.6729 87.6885L47.5921 75.0873C48.166 74.2813 49.0356 73.7352 50.0109 73.5683C50.9862 73.4014 51.9879 73.6274 52.7972 74.1968C53.6029 74.7709 54.1489 75.6404 54.316 76.6156C54.483 77.5907 54.2575 78.5924 53.6887 79.4019L44.7695 92.0031C44.1952 92.8087 43.3256 93.3545 42.3503 93.5211C41.3751 93.6878 40.3736 93.4618 39.5644 92.8926Z" fill="#FF1F00"/>
<path d="M65.9272 142.252L68.7297 142.239L68.9 140.43L70.4352 142.231L77.0446 142.2L72.0661 137.754L66.1297 137.686L65.9272 142.252Z" fill="#FF1F00"/>
<path d="M64.0435 59.1803C64.1019 60.0305 63.6204 61.2242 61.0596 61.1306C58.4989 61.0369 58.0526 62.2759 58.3105 63.3105C58.3105 63.3105 57.7706 62.7323 57.9076 62.011C57.9076 62.011 56.9909 63.0627 57.3666 64.1376C57.3666 64.1376 56.7128 63.106 56.3119 63.8656C55.911 64.6251 56.4439 65.2265 55.919 66.9471C55.919 66.9471 56.1769 65.2426 55.2804 64.335C54.3838 63.4274 53.455 54.7821 60.0452 56.8976C60.0452 56.8976 63.8047 55.6626 64.0435 59.1803ZM79.6103 98.7003C78.0335 98.4225 76.4108 98.7824 75.0994 99.7009C73.7879 100.619 72.895 102.021 72.6172 103.598L65.1445 133.913L74.4647 135.712L83.9692 107.332C84.3883 106.492 84.6053 105.566 84.6031 104.627C84.6008 103.688 84.3793 102.762 83.9561 101.924C83.533 101.086 82.9199 100.358 82.1657 99.7989C81.4116 99.2396 80.5372 98.8641 79.6123 98.7023L79.6103 98.7003Z" fill="black"/>
<path d="M57.0329 64.0008C57.2667 64.706 57.2606 65.1674 56.7025 65.3507C56.3856 65.4399 56.0465 65.4038 55.7554 65.2499C55.4644 65.0959 55.2437 64.8359 55.1391 64.5237C54.9064 63.8185 55.1683 63.0892 55.7264 62.9058C56.2845 62.7225 56.7992 63.2907 57.0329 64.0008ZM69.2956 90.3949C68.3991 88.3308 69.1566 85.9937 70.9799 85.2029L87.5955 80.4784C88.1357 80.1967 88.6539 79.8748 89.1458 79.5153C90.1874 78.7205 93.276 76.8962 93.5319 77.3414C93.7878 77.7867 91.9322 79.466 92.1941 79.5647C92.456 79.6634 94.1081 78.7487 94.782 78.3035C95.456 77.8582 96.7454 76.6715 97.1886 76.8327C97.6319 76.9939 97.5704 77.6869 97.5704 77.6869C97.5704 77.6869 98.0066 77.1742 98.2756 77.5086C98.5445 77.8431 98.057 78.8071 98.057 78.8071C98.057 78.8071 98.2705 78.4969 98.474 78.9391C98.6775 79.3813 97.4667 80.568 97.4667 80.568C97.5086 80.549 97.5543 80.5399 97.6004 80.5413C97.6464 80.5427 97.6914 80.5546 97.7322 80.5761C97.7729 80.5976 97.8082 80.628 97.8353 80.6652C97.8624 80.7024 97.8807 80.7453 97.8888 80.7906C97.9976 81.1462 96.2266 82.5294 94.6853 83.0854C93.3093 83.5811 89.9094 84.395 89.1942 84.5673L74.2448 92.7108C72.4165 93.5016 70.1922 92.46 69.2956 90.3949Z" fill="#E96755"/>
<path d="M50.1709 86.9563L52.3871 82.3164" stroke="#472F2C" stroke-width="1.37" stroke-miterlimit="10"/>
<path d="M37.8729 89.3615C37.7823 91.6109 39.3326 93.5158 41.3171 93.5924L58.5179 91.9998C59.1032 92.0733 62.3016 91.759 63.1367 91.1939C63.6333 90.8574 64.3989 90.7788 65.1152 91.1516C65.9211 91.5736 66.6262 91.8638 66.8922 91.6079C67.2316 91.2805 65.227 90.4091 65.2804 90.251C65.3338 90.0928 66.3824 90.6539 66.8922 90.9088C67.4583 91.1979 68.101 91.2382 68.2017 91.0387C68.4697 90.535 67.3062 89.8369 67.3062 89.8369C67.3062 89.8369 68.9099 90.7194 69.0953 90.2691C69.2021 90.0082 68.4616 89.4441 67.8542 89.1217C67.4392 88.9011 65.9019 88.3329 65.9755 88.1284C66.0228 87.9965 67.4533 88.6664 67.7514 88.7601C68.3226 88.9404 69.197 88.9303 69.1799 88.6916C69.1527 88.3198 65.9402 86.7272 64.0202 87.1322C62.1676 87.523 59.2765 87.7134 58.5481 87.8131L41.6465 85.4176C39.661 85.338 37.9636 87.113 37.8729 89.3615Z" fill="#E96755"/>
<path d="M66.5325 85.844C66.5325 85.844 67.7101 83.3679 67.5187 82.0825C67.3273 80.7971 66.2796 77.3217 66.1416 76.2549" stroke="#472F2C" stroke-width="1.37" stroke-miterlimit="10"/>
<path d="M55.6989 58.0048C56.9575 57.6571 57.5915 55.9763 57.1148 54.2506C56.6382 52.5249 55.2314 51.4077 53.9728 51.7553C52.7142 52.103 52.0802 53.7837 52.5569 55.5095C53.0335 57.2352 54.4402 58.3524 55.6989 58.0048Z" fill="black"/>
<path d="M55.3289 112.637H53.3384V138.926H55.3289V112.637Z" fill="#A71B08"/>
<path d="M59.3087 137.185H49.3569V138.926H59.3087V137.185Z" fill="#931B0A"/>
<path d="M57.2153 112.259H51.4512V113.959H57.2153V112.259Z" fill="#A71B08"/>
<path d="M42.1411 142.252C42.3185 142.252 42.4886 142.182 42.614 142.056C42.7395 141.931 42.8099 141.761 42.8099 141.583V140.837C42.8099 140.749 42.7926 140.662 42.759 140.581C42.7254 140.5 42.6761 140.426 42.614 140.364C42.5519 140.302 42.4781 140.253 42.397 140.219C42.3158 140.186 42.2289 140.169 42.1411 140.169C41.9638 140.169 41.7939 140.239 41.6684 140.365C41.543 140.49 41.4724 140.66 41.4722 140.837V141.582C41.472 141.67 41.4892 141.757 41.5228 141.839C41.5564 141.92 41.6056 141.994 41.6677 142.056C41.7299 142.118 41.8036 142.167 41.8849 142.201C41.9661 142.235 42.0531 142.252 42.1411 142.252Z" fill="#931B0A"/>
<path d="M49.3569 137.185L42.1411 140.169L49.3569 138.926V137.185Z" fill="#A71B08"/>
<path d="M36.0468 94.2168H34.2144V142.475H36.0468V94.2168Z" fill="black"/>
<path d="M39.3843 101.777C39.3843 101.777 62.5537 98.848 67.2702 103.076C71.4206 106.797 68.1416 112.18 68.1416 112.18L45.2522 112.258L39.3843 101.777Z" fill="#931B0A"/>
<path d="M57.826 94.2168H55.9937V142.475H57.826V94.2168Z" fill="black"/>
<path d="M110.303 94.2168H108.471V142.475H110.303V94.2168Z" fill="black"/>
<path d="M77.4253 87.8147H102.959C103.205 87.8144 103.441 87.7205 103.62 87.5521C103.799 87.3836 103.907 87.1533 103.922 86.9081L104.98 71.1448C104.989 71.0129 104.97 70.8805 104.926 70.756C104.881 70.6314 104.812 70.5173 104.722 70.4207C104.631 70.3241 104.522 70.2471 104.401 70.1944C104.28 70.1416 104.149 70.1144 104.017 70.1143H78.48C78.2349 70.1142 77.999 70.2073 77.82 70.3747C77.641 70.5421 77.5323 70.7713 77.5159 71.0159L76.4653 86.7812C76.456 86.9131 76.474 87.0455 76.518 87.1702C76.562 87.2949 76.6311 87.4092 76.7211 87.5061C76.8111 87.603 76.9201 87.6804 77.0412 87.7335C77.1623 87.7866 77.293 87.8142 77.4253 87.8147Z" fill="#991C0B"/>
<path d="M76.6484 87.4208L77.3617 88.1078L78.6007 86.2029L76.8197 86.0508L76.6484 87.4208Z" fill="#991C0B"/>
<path d="M104.621 70.3301L105.252 70.9164L103.927 71.8331L103.054 70.9013L104.043 70.3301H104.621Z" fill="#BF9893"/>
<path d="M77.9986 88.3517H103.536C103.781 88.3515 104.017 88.2584 104.195 88.0912C104.374 87.924 104.483 87.6953 104.499 87.4511L105.557 71.6868C105.566 71.5549 105.548 71.4225 105.503 71.298C105.459 71.1734 105.389 71.0593 105.299 70.9627C105.209 70.8661 105.1 70.7891 104.978 70.7363C104.857 70.6836 104.726 70.6564 104.594 70.6562H79.0563C78.8104 70.6563 78.5738 70.7501 78.3947 70.9186C78.2156 71.087 78.1074 71.3175 78.0923 71.5629L77.0345 87.3262C77.0264 87.4578 77.0453 87.5896 77.0901 87.7137C77.1349 87.8377 77.2046 87.9512 77.2949 88.0473C77.3852 88.1434 77.4942 88.2199 77.6153 88.2723C77.7363 88.3246 77.8667 88.3516 77.9986 88.3517Z" fill="#A71B08"/>
<path d="M88.3721 84.5486L89.1357 91.9699H95.2786L94.0909 80.4365H88.7478L88.3721 84.5486Z" fill="#991C0B"/>
<path d="M89.9338 91.9719H96.0807L94.8931 80.4355H88.7461L89.9338 91.9719Z" fill="#A71B08"/>
<path d="M98.1055 93.4727H84.4849V92.4653C84.4849 92.4006 84.4976 92.3365 84.5223 92.2768C84.5471 92.217 84.5834 92.1627 84.6291 92.117C84.6749 92.0712 84.7292 92.0349 84.7889 92.0102C84.8487 91.9854 84.9128 91.9727 84.9775 91.9727H97.6129C97.6776 91.9727 97.7416 91.9854 97.8014 92.0102C97.8611 92.0349 97.9154 92.0712 97.9612 92.117C98.0069 92.1627 98.0432 92.217 98.068 92.2768C98.0927 92.3365 98.1055 92.4006 98.1055 92.4653V93.4727Z" fill="#991C0B"/>
<path d="M100.516 93.4727H86.8955V92.4653C86.8955 92.4006 86.9082 92.3365 86.933 92.2768C86.9577 92.217 86.994 92.1627 87.0398 92.117C87.0855 92.0712 87.1398 92.0349 87.1996 92.0102C87.2594 91.9854 87.3234 91.9727 87.3881 91.9727H100.024C100.088 91.9727 100.152 91.9854 100.212 92.0102C100.272 92.0349 100.326 92.0712 100.372 92.117C100.418 92.1627 100.454 92.217 100.479 92.2768C100.503 92.3365 100.516 92.4006 100.516 92.4653V93.4727Z" fill="#A71B08"/>
<path d="M112.756 93.4746H48.2085V95.4581H112.756V93.4746Z" fill="black"/>
<path d="M58.4575 93.4746H31.6958V95.4581H58.4575V93.4746Z" fill="black"/>
<path d="M62.9978 92.3848H81.2704C81.3618 92.3848 81.4494 92.4211 81.5141 92.4857C81.5787 92.5503 81.615 92.6379 81.615 92.7293V93.4727H62.6543V92.7242C62.6556 92.6339 62.6924 92.5477 62.7566 92.4842C62.8209 92.4207 62.9075 92.385 62.9978 92.3848Z" fill="white"/>
<path d="M172.317 57.1055H132.376C131.554 57.1055 130.887 57.7721 130.887 58.5944V82.0318C130.887 82.8541 131.554 83.5207 132.376 83.5207H172.317C173.14 83.5207 173.806 82.8541 173.806 82.0318V58.5944C173.806 57.7721 173.14 57.1055 172.317 57.1055Z" fill="#A71B08"/>
<path d="M146.128 66.9368C145.658 66.4331 145.205 66.0973 144.771 65.9294C144.35 65.7645 143.901 65.6791 143.449 65.6776C142.835 65.6686 142.226 65.788 141.661 66.0282C141.14 66.2528 140.672 66.5836 140.286 66.9993C139.898 67.4191 139.596 67.9104 139.396 68.4458C139.183 69.0148 139.076 69.6182 139.081 70.2259C139.074 70.8685 139.181 71.5072 139.396 72.1127C139.591 72.6639 139.894 73.171 140.286 73.6046C140.671 74.0258 141.139 74.3626 141.661 74.5938C142.225 74.8398 142.834 74.9624 143.449 74.9534C143.972 74.9517 144.487 74.8253 144.951 74.5847C145.484 74.2971 145.948 73.895 146.307 73.4071L148.177 74.7369C147.645 75.4912 146.918 76.087 146.074 76.4605C145.241 76.8214 144.341 77.0049 143.433 76.9994C142.509 77.0101 141.592 76.8489 140.727 76.5239C139.933 76.2279 139.209 75.7686 138.603 75.1757C137.998 74.5828 137.523 73.8695 137.209 73.0818C136.864 72.2173 136.692 71.2929 136.706 70.3619C136.693 69.4123 136.864 68.4691 137.209 67.5845C137.522 66.7863 137.996 66.0612 138.603 65.455C139.208 64.8602 139.93 64.3981 140.723 64.0981C141.588 63.7727 142.505 63.6111 143.429 63.6216C144.251 63.614 145.067 63.7698 145.829 64.0799C146.567 64.3848 147.253 64.9029 147.887 65.6343L146.128 66.9368ZM155.947 66.6819C155.71 66.3364 155.375 66.0702 154.985 65.9184C154.583 65.7562 154.152 65.6737 153.718 65.6756C153.461 65.6749 153.205 65.705 152.955 65.7652C152.718 65.8218 152.492 65.9193 152.289 66.0533C152.092 66.1843 151.929 66.3596 151.812 66.5651C151.688 66.7938 151.626 67.0513 151.633 67.3115C151.633 67.7427 151.783 68.0721 152.082 68.2998C152.423 68.5503 152.799 68.7502 153.197 68.8931C153.639 69.0617 154.125 69.2235 154.653 69.3787C155.165 69.5281 155.655 69.7456 156.109 70.0254C156.556 70.3051 156.936 70.6796 157.223 71.1224C157.523 71.5778 157.673 72.1822 157.673 72.9357C157.687 73.5532 157.558 74.1657 157.295 74.7248C157.056 75.2177 156.709 75.6505 156.28 75.991C155.838 76.3347 155.335 76.5911 154.797 76.7466C154.219 76.9158 153.619 77.0003 153.017 76.9974C152.239 76.9995 151.467 76.8659 150.734 76.6025C149.998 76.3349 149.347 75.8759 148.847 75.2728L150.559 73.6187C150.83 74.0346 151.205 74.3724 151.646 74.5988C152.087 74.8305 152.578 74.9508 153.076 74.9494C153.343 74.9487 153.609 74.9124 153.866 74.8416C154.122 74.7726 154.365 74.6631 154.586 74.5173C154.798 74.3765 154.977 74.1891 155.106 73.9692C155.242 73.738 155.312 73.4738 155.308 73.2057C155.308 72.7356 155.158 72.3759 154.859 72.1268C154.52 71.8543 154.139 71.6392 153.73 71.4901C153.287 71.3168 152.802 71.1523 152.274 70.9965C151.763 70.8488 151.274 70.6355 150.819 70.3619C150.372 70.0897 149.992 69.7215 149.705 69.284C149.406 68.8347 149.256 68.2323 149.256 67.4768C149.239 66.8806 149.378 66.2904 149.659 65.7642C149.921 65.2937 150.283 64.886 150.719 64.5695C151.173 64.2463 151.682 64.0074 152.22 63.8643C152.782 63.709 153.363 63.6304 153.946 63.6306C154.608 63.6282 155.266 63.7302 155.896 63.9328C156.529 64.1397 157.109 64.4837 157.595 64.9402L155.947 66.6819ZM166.259 66.6819C166.022 66.3368 165.688 66.0708 165.298 65.9184C164.895 65.7562 164.465 65.6737 164.031 65.6756C163.773 65.6749 163.517 65.705 163.267 65.7652C163.03 65.8218 162.805 65.9193 162.601 66.0533C162.405 66.1843 162.241 66.3596 162.125 66.5651C162 66.7938 161.939 67.0513 161.945 67.3115C161.945 67.7427 162.095 68.0721 162.395 68.2998C162.736 68.5503 163.111 68.7502 163.51 68.8931C163.952 69.0617 164.438 69.2235 164.965 69.3787C165.477 69.5281 165.967 69.7456 166.421 70.0254C166.867 70.3056 167.246 70.68 167.531 71.1224C167.831 71.5778 167.982 72.1822 167.982 72.9357C167.996 73.5532 167.866 74.1657 167.604 74.7248C167.365 75.2177 167.018 75.6505 166.588 75.991C166.147 76.3347 165.643 76.5911 165.106 76.7466C164.527 76.9158 163.928 77.0003 163.325 76.9974C162.547 76.9995 161.775 76.8659 161.043 76.6025C160.307 76.3349 159.655 75.8759 159.155 75.2728L160.862 73.6187C161.134 74.0344 161.509 74.3722 161.95 74.5988C162.391 74.8305 162.882 74.9508 163.38 74.9494C163.647 74.9487 163.913 74.9124 164.171 74.8416C164.426 74.7726 164.669 74.6631 164.89 74.5173C165.103 74.3765 165.281 74.1891 165.411 73.9692C165.547 73.738 165.616 73.4738 165.612 73.2057C165.612 72.7356 165.462 72.3759 165.163 72.1268C164.829 71.8549 164.452 71.6392 164.049 71.4881C163.606 71.3148 163.12 71.1503 162.592 70.9945C162.081 70.8456 161.592 70.6309 161.136 70.3558C160.69 70.0836 160.309 69.7154 160.022 69.2779C159.723 68.8286 159.574 68.2262 159.573 67.4707C159.556 66.8746 159.695 66.2844 159.976 65.7582C160.239 65.2876 160.601 64.8799 161.037 64.5635C161.491 64.2402 161.999 64.0013 162.538 63.8583C163.1 63.703 163.68 63.6244 164.263 63.6246C164.925 63.6223 165.583 63.7242 166.214 63.9268C166.847 64.1337 167.427 64.4776 167.912 64.9342L166.259 66.6819Z" fill="white"/>
<path d="M54.416 22.6533H1.70749C0.764468 22.6533 0 23.4178 0 24.3608V47.5293C0 48.4723 0.764468 49.2367 1.70749 49.2367H54.416C55.359 49.2367 56.1235 48.4723 56.1235 47.5293V24.3608C56.1235 23.4178 55.359 22.6533 54.416 22.6533Z" fill="#FF1F00"/>
<path d="M4.64719 29.7314H6.8634V34.6816H12.6729V29.7314H14.8891V42.1553H12.6729V36.6823H6.85635V42.1553H4.64014L4.64719 29.7314ZM20.1989 31.7331H16.3891V29.7314H26.218V31.7331H22.4101V42.1553H20.1989V31.7331ZM27.7814 29.7314H31.151L34.4683 38.4371L37.8208 29.7314H41.1562V42.1553H39.0508V31.8378H39.0145L35.2409 42.1553H33.6966L29.9251 31.8378H29.8898V42.1553H27.7814V29.7314ZM43.9809 29.7314H46.1971V40.1577H51.4807V42.1553H43.9859L43.9809 29.7314Z" fill="white"/>
<path d="M143.834 124.918C139.423 122.535 134.465 118.195 132.536 113.266C137.304 115.726 141.323 119.87 143.834 124.918ZM143.546 117.525C139.135 115.141 134.177 110.802 132.248 105.873C137.017 108.332 141.035 112.477 143.546 117.525ZM142.887 110.298C138.476 107.914 133.518 103.575 131.589 98.6462C136.357 101.105 140.376 105.251 142.887 110.298ZM141.922 102.707C137.83 99.7251 133.427 94.7286 132.097 89.5709C136.529 92.6766 140.029 97.3487 141.922 102.707ZM140.678 96.8551C137.91 92.4227 135.54 85.9987 136.087 80.6748C139.134 85.3611 140.766 91.1162 140.678 96.8551ZM141.305 99.6375C142.471 94.1121 145.308 87.2922 149.393 83.4511C148.196 89.4736 145.402 95.0639 141.305 99.6375ZM142.214 105.889C143.882 100.235 147.398 93.3797 151.968 89.7351C150.229 95.899 146.859 101.48 142.214 105.889ZM143.216 113.502C144.886 107.849 148.4 100.992 152.971 97.3477C151.232 103.512 147.862 109.093 143.216 113.502ZM143.722 122.781C145.39 117.126 148.906 110.271 153.476 106.627C151.736 112.79 148.367 118.371 143.722 122.781Z" fill="#A71B08"/>
<path d="M140.567 95.7344C140.581 95.7627 140.59 95.7929 140.595 95.824C140.611 95.8935 140.632 95.9812 140.658 96.09C140.712 96.3378 140.787 96.6813 140.882 97.1165C141.077 98.008 141.331 99.3035 141.621 100.91C141.91 102.517 142.225 104.436 142.527 106.572C142.829 108.707 143.101 111.066 143.333 113.545C143.565 116.024 143.71 118.395 143.812 120.551C143.913 122.707 143.952 124.65 143.957 126.282C143.962 127.914 143.957 129.234 143.923 130.146L143.89 131.197C143.89 131.308 143.881 131.398 143.877 131.47C143.877 131.501 143.874 131.532 143.867 131.562C143.859 131.532 143.857 131.5 143.859 131.469C143.859 131.397 143.859 131.308 143.859 131.196C143.859 130.942 143.859 130.591 143.859 130.146C143.866 129.233 143.859 127.914 143.836 126.284C143.813 124.654 143.753 122.712 143.651 120.558C143.55 118.404 143.385 116.04 143.159 113.562C142.933 111.084 142.655 108.726 142.369 106.594C142.083 104.461 141.783 102.539 141.506 100.931C141.229 99.3236 141.002 98.0251 140.824 97.1296C140.743 96.6924 140.679 96.3469 140.633 96.097C140.614 95.9872 140.599 95.8956 140.588 95.8271C140.577 95.7971 140.57 95.766 140.567 95.7344Z" fill="black"/>
<path opacity="0.3" d="M143.834 124.918C139.423 122.535 134.465 118.195 132.536 113.266C137.304 115.726 141.323 119.87 143.834 124.918ZM143.546 117.525C139.135 115.141 134.177 110.802 132.248 105.873C137.017 108.332 141.035 112.477 143.546 117.525ZM142.887 110.298C138.476 107.914 133.518 103.575 131.589 98.6462C136.357 101.105 140.376 105.251 142.887 110.298ZM141.922 102.707C137.83 99.7251 133.427 94.7286 132.097 89.5709C136.529 92.6766 140.029 97.3487 141.922 102.707ZM140.678 96.8551C137.91 92.4227 135.54 85.9987 136.087 80.6748C139.134 85.3611 140.766 91.1162 140.678 96.8551ZM141.305 99.6375C142.471 94.1121 145.308 87.2922 149.393 83.4511C148.196 89.4736 145.402 95.0639 141.305 99.6375ZM142.214 105.889C143.882 100.235 147.398 93.3797 151.968 89.7351C150.229 95.899 146.859 101.48 142.214 105.889ZM143.216 113.502C144.886 107.849 148.4 100.992 152.971 97.3477C151.232 103.512 147.862 109.093 143.216 113.502ZM143.722 122.781C145.39 117.126 148.906 110.271 153.476 106.627C151.736 112.79 148.367 118.371 143.722 122.781Z" fill="black"/>
<path d="M144.948 126.413C142.265 122.869 139.765 117.626 139.8 113.124C142.738 116.865 144.57 121.592 144.948 126.413ZM147.025 120.684C144.341 117.14 141.841 111.896 141.876 107.395C144.813 111.136 146.645 115.863 147.025 120.684ZM148.76 114.935C146.077 111.391 143.576 106.148 143.612 101.646C146.549 105.387 148.38 110.114 148.76 114.935ZM150.371 108.789C148.122 104.917 146.256 99.3913 146.828 94.9508C149.325 99.1227 150.556 103.93 150.371 108.789ZM151.227 103.852C150.455 99.3983 150.617 93.5889 152.693 89.7568C153.6 94.5136 153.08 99.5283 151.227 103.852ZM150.847 106.216C153.467 102.476 157.793 98.4101 162.159 97.0965C159.373 101.188 155.437 104.362 150.847 106.216ZM149.608 111.322C152.663 107.682 157.523 103.855 162.206 102.882C159.006 106.836 154.525 109.833 149.608 111.322ZM148.02 117.499C151.073 113.859 155.935 110.032 160.612 109.059C157.412 113.013 152.932 116.01 148.02 117.499ZM145.527 124.745C148.581 121.105 153.441 117.279 158.119 116.306C154.919 120.259 150.438 123.257 145.527 124.745Z" fill="#A71B08"/>
<path d="M151.487 102.961C151.491 102.986 151.491 103.012 151.487 103.037C151.478 103.098 151.468 103.171 151.455 103.262C151.42 103.472 151.373 103.758 151.313 104.12C151.189 104.865 150.986 105.94 150.715 107.262C150.173 109.909 149.314 113.545 148.128 117.494C147.532 119.469 146.914 121.333 146.32 123.019C145.727 124.704 145.15 126.205 144.641 127.457C144.132 128.709 143.71 129.717 143.401 130.406C143.251 130.74 143.132 131.01 143.044 131.198L142.944 131.4C142.921 131.446 142.908 131.468 142.905 131.467C142.909 131.442 142.916 131.417 142.927 131.394C142.95 131.336 142.977 131.267 143.009 131.182C143.09 130.981 143.198 130.716 143.337 130.376C143.628 129.679 144.037 128.664 144.526 127.409C145.016 126.154 145.577 124.646 146.17 122.963C146.763 121.281 147.368 119.413 147.963 117.442C149.147 113.498 150.024 109.871 150.595 107.234C150.881 105.916 151.098 104.845 151.244 104.104L151.417 103.252C151.437 103.163 151.453 103.09 151.466 103.03C151.47 103.007 151.477 102.983 151.487 102.961Z" fill="black"/>
<path d="M149.157 140.843H139.724L137.965 127.843H150.965L149.157 140.843Z" fill="#FF1F00"/>
<path d="M152.134 127.711H136.796V129.732H152.134V127.711Z" fill="#FF1F00"/>
<path d="M152.134 129.766C152.134 129.803 148.74 129.833 144.553 129.833C140.367 129.833 136.972 129.803 136.972 129.766C136.972 129.728 140.366 129.698 144.553 129.698C148.741 129.698 152.134 129.728 152.134 129.766Z" fill="black"/>
</svg>
