<svg width="32" height="44" viewBox="0 0 32 44" fill="none" xmlns="http://www.w3.org/2000/svg">
<path d="M20.6826 43.4592L16.3066 27.1279L25.5989 24.6381L29.9749 40.9693L24.9309 40.7296L20.6826 43.4592Z" fill="#E85859"/>
<path d="M11.7725 43.4592L16.1484 27.1279L6.85617 24.6381L2.48023 40.9693L7.52417 40.7296L11.7725 43.4592Z" fill="#E85859"/>
<circle cx="16.3137" cy="15.4152" r="15.3703" fill="#FCBF09"/>
<path d="M15.8403 6.1188C15.99 5.65814 16.6417 5.65814 16.7914 6.1188L18.6192 11.7442C18.6861 11.9502 18.8781 12.0897 19.0947 12.0897H25.0097C25.494 12.0897 25.6954 12.7095 25.3035 12.9942L20.5183 16.4709C20.343 16.5982 20.2697 16.8239 20.3366 17.0299L22.1645 22.6554C22.3141 23.116 21.7869 23.4991 21.395 23.2144L16.6098 19.7377C16.4345 19.6104 16.1972 19.6104 16.022 19.7377L11.2367 23.2144C10.8448 23.4991 10.3176 23.116 10.4673 22.6554L12.2951 17.0299C12.362 16.8239 12.2887 16.5982 12.1135 16.4709L7.32818 12.9942C6.93633 12.7095 7.13771 12.0897 7.62208 12.0897H13.537C13.7536 12.0897 13.9456 11.9502 14.0125 11.7442L15.8403 6.1188Z" fill="#FB8D01"/>
<path d="M17.8516 3.11816C23.2312 3.11799 28.6108 8.40922 28.6108 13.7885" stroke="#FB8D01"/>
<path d="M17.1738 27.2588C11.9776 28.6513 5.41179 24.9327 4.01952 19.7367" stroke="#FB8D01"/>
</svg>
