<svg width="45" height="45" viewBox="0 0 45 45" fill="none" xmlns="http://www.w3.org/2000/svg">
<path d="M0 22.5C0 10.0736 10.0736 0 22.5 0C34.9264 0 45 10.0736 45 22.5C45 34.9264 34.9264 45 22.5 45H0V22.5Z" fill="white"/>
<path d="M0 22.5C0 10.0736 10.0736 0 22.5 0C34.9264 0 45 10.0736 45 22.5C45 34.9264 34.9264 45 22.5 45H0V22.5Z" fill="url(#paint0_linear_13321_34106)"/>
<path d="M33.5 13C33.5 12.1716 32.8284 11.5 32 11.5L18.5 11.5C17.6716 11.5 17 12.1716 17 13C17 13.8284 17.6716 14.5 18.5 14.5H30.5V26.5C30.5 27.3284 31.1716 28 32 28C32.8284 28 33.5 27.3284 33.5 26.5L33.5 13ZM14.0607 33.0607L33.0607 14.0607L30.9393 11.9393L11.9393 30.9393L14.0607 33.0607Z" fill="url(#paint1_linear_13321_34106)"/>
<defs>
<linearGradient id="paint0_linear_13321_34106" x1="22.5" y1="0" x2="22.5" y2="45" gradientUnits="userSpaceOnUse">
<stop stop-color="#5FB2FF"/>
<stop offset="1" stop-color="#0085FF" stop-opacity="0.2"/>
</linearGradient>
<linearGradient id="paint1_linear_13321_34106" x1="26.5" y1="17.5" x2="0.499994" y2="43" gradientUnits="userSpaceOnUse">
<stop stop-color="#4685FF"/>
<stop offset="1" stop-color="#C0D5FF" stop-opacity="0"/>
</linearGradient>
</defs>
</svg>
