<svg width="23" height="24" viewBox="0 0 23 24" fill="none" xmlns="http://www.w3.org/2000/svg">
<g filter="url(#filter0_d_7910_70779)">
<path fill-rule="evenodd" clip-rule="evenodd" d="M11.6543 18.0328C15.2949 18.0328 18.2461 15.0815 18.2461 11.4409C18.2461 7.80038 15.2949 4.84912 11.6543 4.84912C8.01376 4.84912 5.0625 7.80038 5.0625 11.4409C5.0625 12.9251 5.553 14.2947 6.38073 15.3965L6.23427 18.9117L9.51992 17.6795C10.1893 17.9085 10.9073 18.0328 11.6543 18.0328Z" fill="white"/>
<path d="M11.1473 4.00816C9.80684 4.07127 8.50785 4.49288 7.38583 5.22902C6.26381 5.96515 5.35985 6.98885 4.76822 8.19335C4.17659 9.39785 3.91898 10.739 4.02224 12.077C4.1255 13.415 4.58586 14.7007 5.35529 15.8002C5.46323 15.9542 5.51683 16.1397 5.50764 16.3275L5.38166 18.8881C5.3751 19.0254 5.40264 19.1621 5.46183 19.2862C5.52102 19.4102 5.61002 19.5176 5.72086 19.5989C5.83171 19.6801 5.96096 19.7327 6.09706 19.7518C6.23316 19.7709 6.37187 19.756 6.5008 19.7084L9.02913 18.7709C9.19438 18.7096 9.37463 18.7014 9.54476 18.7475C10.5907 19.0293 11.6852 19.0814 12.7531 18.9C13.821 18.7187 14.837 18.3083 15.7313 17.697C16.6255 17.0857 17.3768 16.288 17.9334 15.3588C18.4901 14.4295 18.839 13.3908 18.956 12.3139C19.0731 11.2371 18.9556 10.1476 18.6117 9.12048C18.2677 8.09334 17.7054 7.15284 16.9635 6.36365C16.2215 5.57446 15.3175 4.95528 14.3135 4.54867C13.3095 4.14206 12.2293 3.95766 11.1473 4.00816ZM11.6248 17.7777H11.5077C10.9534 17.7778 10.4017 17.7039 9.86703 17.558C9.69533 17.5102 9.51295 17.5173 9.34554 17.5785L7.93929 18.1L6.56819 18.6186C6.54697 18.6263 6.52418 18.6286 6.50182 18.6254C6.47947 18.6223 6.45824 18.6136 6.44001 18.6003C6.42178 18.587 6.4071 18.5694 6.39726 18.5491C6.38743 18.5288 6.38274 18.5063 6.38362 18.4838L6.45393 17.0541L6.52717 15.6244C6.53636 15.4366 6.48276 15.251 6.37483 15.0971C5.57444 13.9505 5.1801 12.5694 5.25443 11.1731C5.32876 9.77686 5.86752 8.44544 6.78511 7.39037C7.7027 6.3353 8.94652 5.61708 10.319 5.34979C11.6915 5.0825 13.1139 5.28147 14.3604 5.91509C15.6069 6.54871 16.6059 7.58065 17.1988 8.847C17.7916 10.1133 17.9444 11.5415 17.6327 12.9046C17.3211 14.2677 16.5629 15.4876 15.4787 16.3705C14.3944 17.2534 13.0462 17.7487 11.6483 17.7777H11.6248Z" fill="#2D2D2D"/>
<circle cx="11.2148" cy="7.77857" r="1.17188" fill="#2D2D2D"/>
<rect x="10.043" y="9.82959" width="2.34376" height="5.85939" rx="1.17188" fill="#2D2D2D"/>
</g>
<defs>
<filter id="filter0_d_7910_70779" x="0" y="0" width="23" height="23.7598" filterUnits="userSpaceOnUse" color-interpolation-filters="sRGB">
<feFlood flood-opacity="0" result="BackgroundImageFix"/>
<feColorMatrix in="SourceAlpha" type="matrix" values="0 0 0 0 0 0 0 0 0 0 0 0 0 0 0 0 0 0 127 0" result="hardAlpha"/>
<feOffset/>
<feGaussianBlur stdDeviation="2"/>
<feComposite in2="hardAlpha" operator="out"/>
<feColorMatrix type="matrix" values="0 0 0 0 1 0 0 0 0 1 0 0 0 0 1 0 0 0 1 0"/>
<feBlend mode="normal" in2="BackgroundImageFix" result="effect1_dropShadow_7910_70779"/>
<feBlend mode="normal" in="SourceGraphic" in2="effect1_dropShadow_7910_70779" result="shape"/>
</filter>
</defs>
</svg>
