<svg width="99" height="94" viewBox="0 0 99 94" fill="none" xmlns="http://www.w3.org/2000/svg">
<path d="M10 35.5194H12.3062L88.0957 26H96C97.1046 26 98 26.8954 98 28V89.3378C98 90.4424 97.1046 91.3378 96 91.3378L59.4885 91.3379C59.0853 91.3379 58.693 91.4627 58.3537 91.6804C55.8833 93.2658 54.0716 93.5696 51.6102 91.7779C51.2355 91.5051 50.79 91.3379 50.3265 91.3379L10 91.3378C8.89543 91.3378 8 90.4424 8 89.3378V37.5194C8 36.4149 8.89543 35.5194 10 35.5194Z" fill="#AEAEAE" stroke="#CBCBCB" strokeWidth="2"/>
<path d="M3 87.0001V29.2347C3 28.1301 3.89543 27.2347 5 27.2347H56.04C66.9226 16.3345 83.7968 18.8005 92.3286 20.221C93.2943 20.3818 94 21.2184 94 22.1973V79.4798C94 80.7143 92.8889 81.6515 91.6648 81.4912C74.0885 79.1888 60.6895 84.2061 56.04 89.0001H5C3.89543 89.0001 3 88.1047 3 87.0001Z" fill="#AEAEAE"/>
<path d="M56.04 89.0001H5C3.89543 89.0001 3 88.1047 3 87.0001V29.2347C3 28.1301 3.89543 27.2347 5 27.2347H56.04M56.04 89.0001V27.2347M56.04 89.0001C60.6895 84.2061 74.0885 79.1888 91.6648 81.4912C92.8889 81.6515 94 80.7143 94 79.4798V22.1973C94 21.2184 93.2943 20.3818 92.3286 20.221C83.7968 18.8005 66.9226 16.3345 56.04 27.2347" stroke="#CBCBCB" strokeWidth="2"/>
<path d="M1 84.0961V16.0961C1 14.9915 1.89543 14.0961 3 14.0961H52C62.4608 1.39367 78.6793 0.206407 86.8853 1.3272C87.8299 1.45622 88.5 2.28237 88.5 3.23573V70.6565C88.5 71.9186 87.3404 72.8612 86.0894 72.6948C69.2703 70.4577 56.4561 80.526 52 86.0961H3C1.89543 86.0961 1 85.2007 1 84.0961Z" fill="#AEAEAE"/>
<path d="M52 86.0961H3C1.89543 86.0961 1 85.2007 1 84.0961V16.0961C1 14.9915 1.89543 14.0961 3 14.0961H52M52 86.0961V14.0961M52 86.0961C56.4561 80.526 69.2703 70.4577 86.0894 72.6948C87.3404 72.8612 88.5 71.9186 88.5 70.6565V3.23573C88.5 2.28237 87.8299 1.45622 86.8853 1.3272C78.6793 0.206407 62.4608 1.39367 52 14.0961" stroke="#CBCBCB" strokeWidth="2"/>
<path d="M60 59C63.5714 56.8878 72.1714 52.9801 78 54.2475" stroke="#CBCBCB" strokeWidth="2" strokeLinecap="round"/>
<path d="M60 66C63.5714 63.8878 72.1714 59.9801 78 61.2475" stroke="#CBCBCB" strokeWidth="2" strokeLinecap="round"/>
<path d="M60 73C63.5714 70.8878 72.1714 66.9801 78 68.2475" stroke="#CBCBCB" strokeWidth="2" strokeLinecap="round"/>
<path d="M60 52C63.5714 49.8878 72.1714 45.9801 78 47.2475" stroke="#CBCBCB" strokeWidth="2" strokeLinecap="round"/>
<path d="M60 45C63.5714 42.4653 72.1714 37.7762 78 39.297" stroke="#CBCBCB" strokeWidth="2" strokeLinecap="round"/>
<path d="M60 37C63.5714 34.8878 72.1714 30.9801 78 32.2475" stroke="#CBCBCB" strokeWidth="2" strokeLinecap="round"/>
<path d="M60 30C63.5714 27.8878 72.1714 23.9801 78 25.2475" stroke="#CBCBCB" strokeWidth="2" strokeLinecap="round"/>
<path d="M60 23C63.5714 20.8878 72.1714 16.9801 78 18.2475" stroke="#CBCBCB" strokeWidth="2" strokeLinecap="round"/>
<path d="M60 16C63.5714 13.8878 72.1714 9.98014 78 11.2475" stroke="#CBCBCB" strokeWidth="2" strokeLinecap="round"/>
<path d="M14.5274 22.9238V24.708H11.5128V33H9.39363V24.708H6.36531V22.9238H14.5274ZM19.7657 33.2803C18.3256 33.2803 17.225 32.8883 16.4639 32.1045C15.4431 31.1429 14.9327 29.7575 14.9327 27.9482C14.9327 26.1025 15.4431 24.7171 16.4639 23.792C17.225 23.0081 18.3256 22.6162 19.7657 22.6162C21.2058 22.6162 22.3064 23.0081 23.0674 23.792C24.0837 24.7171 24.5918 26.1025 24.5918 27.9482C24.5918 29.7575 24.0837 31.1429 23.0674 32.1045C22.3064 32.8883 21.2058 33.2803 19.7657 33.2803ZM21.7549 30.5732C22.2426 29.958 22.4864 29.083 22.4864 27.9482C22.4864 26.818 22.2403 25.9453 21.7481 25.3301C21.2605 24.7103 20.5996 24.4004 19.7657 24.4004C18.9317 24.4004 18.2663 24.708 17.7696 25.3232C17.2728 25.9385 17.0245 26.8135 17.0245 27.9482C17.0245 29.083 17.2728 29.958 17.7696 30.5732C18.2663 31.1885 18.9317 31.4961 19.7657 31.4961C20.5996 31.4961 21.2627 31.1885 21.7549 30.5732ZM30.2744 29.377H28.1348V33H26.043V22.9238H30.4316C31.4434 22.9238 32.25 23.1836 32.8516 23.7031C33.4531 24.2227 33.7539 25.027 33.7539 26.1162C33.7539 27.3057 33.4531 28.1465 32.8516 28.6387C32.25 29.1309 31.391 29.377 30.2744 29.377ZM31.2588 27.2783C31.5322 27.0368 31.6689 26.654 31.6689 26.1299C31.6689 25.6058 31.5299 25.2321 31.252 25.0088C30.9785 24.7855 30.5934 24.6738 30.0967 24.6738H28.1348V27.6406H30.0967C30.5934 27.6406 30.9808 27.5199 31.2588 27.2783ZM34.9589 22.9238H37.0507V33H34.9589V22.9238ZM45.9189 32.248C45.1669 32.9362 44.2053 33.2803 43.0341 33.2803C41.5849 33.2803 40.4456 32.8154 39.6161 31.8857C38.7867 30.9515 38.372 29.6709 38.372 28.0439C38.372 26.2848 38.8437 24.929 39.787 23.9766C40.6073 23.1471 41.651 22.7324 42.9179 22.7324C44.6132 22.7324 45.8528 23.2884 46.6366 24.4004C47.0696 25.0247 47.302 25.6514 47.3339 26.2803H45.2284C45.0917 25.7972 44.9163 25.4326 44.7021 25.1865C44.3193 24.749 43.7519 24.5303 42.9999 24.5303C42.2343 24.5303 41.6305 24.8402 41.1884 25.46C40.7463 26.0752 40.5253 26.9479 40.5253 28.0781C40.5253 29.2083 40.7577 30.056 41.2226 30.6211C41.692 31.1816 42.2867 31.4619 43.0068 31.4619C43.745 31.4619 44.3079 31.2204 44.6952 30.7373C44.9094 30.4775 45.0872 30.0879 45.2284 29.5684H47.3134C47.1311 30.6667 46.6663 31.5599 45.9189 32.248Z" fill="#363636"/>
<path d="M8 42L45 42" stroke="#CBCBCB" strokeWidth="2" strokeLinecap="round"/>
<path d="M8 49L45 49" stroke="#CBCBCB" strokeWidth="2" strokeLinecap="round"/>
<path d="M8 56L45 56" stroke="#CBCBCB" strokeWidth="2" strokeLinecap="round"/>
<path d="M8 63L45 63" stroke="#CBCBCB" strokeWidth="2" strokeLinecap="round"/>
<path d="M8 70L45 70" stroke="#CBCBCB" strokeWidth="2" strokeLinecap="round"/>
<path d="M8 77L45 77" stroke="#CBCBCB" strokeWidth="2" strokeLinecap="round"/>
</svg>
